<svg width="164" height="280" viewBox="0 0 164 280" fill="none" xmlns="http://www.w3.org/2000/svg">
<g filter="url(#filter0_d)">
<path d="M-149.932 271.722C-63.7134 214.549 -19.2965 142.955 11.1083 135.571C41.5132 128.186 154.13 0.715611 138.806 3.12442C129.068 4.65495 26.1863 110.749 4.17054 118.593C-17.8452 126.437 -112.192 225.799 -164.601 253.35L-149.932 271.722Z" fill="#905F43"/>
</g>
<path d="M115.955 28.44C117.059 23.8579 117.058 28.8395 115.138 31.2377C113.218 33.6358 114.734 32.2355 109.406 37.2719C104.078 42.3083 107.289 41.3251 105.223 42.8443C104.076 43.688 103.814 43.1865 103.808 42.5737C103.8 41.8663 104.136 41.2069 104.545 40.6297C108.148 35.5462 114.91 32.7752 115.955 28.44Z" fill="#7E543C"/>
<path d="M39.6613 106.205C40.7657 101.622 40.7647 106.604 38.8443 109.002C36.9239 111.4 38.4405 110 33.1123 115.036C27.7841 120.073 30.9949 119.09 28.9298 120.609C27.7827 121.453 27.5205 120.951 27.5141 120.338C27.5066 119.631 27.8418 118.971 28.251 118.394C31.8544 113.311 38.6165 110.54 39.6613 106.205Z" fill="#7E543C"/>
<path d="M2.10017 125.896C6.44997 124.081 1.53118 124.87 -0.533031 127.146C-2.59725 129.421 -1.45449 127.702 -5.58477 133.76C-9.71506 139.818 -9.25207 136.492 -10.4255 138.771C-11.0772 140.037 -10.5405 140.217 -9.93443 140.126C-9.23469 140.022 -8.63665 139.586 -8.13143 139.091C-3.68184 134.729 -2.0152 127.614 2.10017 125.896Z" fill="#7E543C"/>
<path d="M72.2296 67.5973C75.7124 64.4215 71.3478 66.8231 70.172 69.6614C68.9961 72.4998 69.4922 70.4961 67.6468 77.5918C65.8014 84.6875 65.1156 81.4004 64.7797 83.942C64.5931 85.3537 65.159 85.3417 65.699 85.0521C66.3224 84.7177 66.7387 84.1062 67.0472 83.4696C69.7651 77.8624 68.9345 70.602 72.2296 67.5973Z" fill="#7E543C"/>
<defs>
<filter id="filter0_d" x="-173" y="0.00012207" width="336.116" height="279.168" filterUnits="userSpaceOnUse" color-interpolation-filters="sRGB">
<feFlood flood-opacity="0" result="BackgroundImageFix"/>
<feColorMatrix in="SourceAlpha" type="matrix" values="0 0 0 0 0 0 0 0 0 0 0 0 0 0 0 0 0 0 127 0"/>
<feOffset dy="2"/>
<feGaussianBlur stdDeviation="2"/>
<feColorMatrix type="matrix" values="0 0 0 0 0 0 0 0 0 0 0 0 0 0 0 0 0 0 0.15 0"/>
<feBlend mode="normal" in2="BackgroundImageFix" result="effect1_dropShadow"/>
<feBlend mode="normal" in="SourceGraphic" in2="effect1_dropShadow" result="shape"/>
</filter>
</defs>
</svg>
