<svg width="204" height="315" viewBox="0 0 204 315" fill="none" xmlns="http://www.w3.org/2000/svg">
<g filter="url(#filter0_d)">
<path d="M308.565 306.958C225.978 244.654 185.991 170.495 156.091 161.278C126.191 152.06 21.5231 17.9856 36.6732 21.3207C46.2995 23.4398 142.548 135.586 164.047 144.753C185.546 153.919 273.684 258.828 324.323 289.511L308.565 306.958Z" fill="#905F43"/>
</g>
<path d="M57.9441 47.9774C57.12 43.3366 56.8185 48.3091 58.5897 50.8195C60.3609 53.3298 58.9322 51.84 63.9446 57.1907C68.9571 62.5414 65.812 61.365 67.7811 63.0068C68.8747 63.9186 69.1669 63.4339 69.2106 62.8227C69.261 62.117 68.9664 61.4385 68.5931 60.8375C65.305 55.5446 58.7237 52.368 57.9441 47.9774Z" fill="#7E543C"/>
<path d="M129.374 130.232C128.55 125.591 128.249 130.564 130.02 133.074C131.791 135.584 130.362 134.095 135.375 139.445C140.387 144.796 137.242 143.62 139.211 145.261C140.305 146.173 140.597 145.688 140.641 145.077C140.691 144.372 140.397 143.693 140.023 143.092C136.735 137.799 130.154 134.623 129.374 130.232Z" fill="#7E543C"/>
<path d="M198.552 187.781C194.321 185.705 199.182 186.791 201.105 189.187C203.027 191.584 201.991 189.799 205.745 196.096C209.5 202.394 209.24 199.046 210.273 201.392C210.846 202.696 210.3 202.842 209.7 202.715C209.008 202.568 208.438 202.097 207.964 201.572C203.787 196.948 202.556 189.745 198.552 187.781Z" fill="#7E543C"/>
<path d="M165.67 152.169C161.438 150.093 166.3 151.179 168.222 153.575C170.145 155.972 169.108 154.187 172.863 160.484C176.618 166.782 176.358 163.434 177.391 165.78C177.964 167.083 177.417 167.23 176.818 167.103C176.126 166.956 175.555 166.485 175.081 165.96C170.905 161.336 169.673 154.133 165.67 152.169Z" fill="#7E543C"/>
<path d="M99.2107 89.7179C95.9272 86.3365 100.138 88.9987 101.139 91.9032C102.141 94.8077 101.767 92.7776 103.178 99.9723C104.589 107.167 105.473 103.928 105.654 106.485C105.755 107.905 105.191 107.859 104.669 107.537C104.067 107.165 103.689 106.53 103.42 105.876C101.047 100.114 102.317 92.9172 99.2107 89.7179Z" fill="#7E543C"/>
<g filter="url(#filter1_d)">
<path d="M91.6718 89.5481C99.6566 92.031 110.628 99.6057 106.512 107.695C102.976 114.645 96.2118 115.039 86.9273 111.257C77.6428 107.474 59.486 97.8481 59.5452 92.2944C59.6045 86.7408 83.687 87.0652 91.6718 89.5481Z" fill="#C3E0C2"/>
</g>
<path d="M69.044 94.5627C69.044 94.5627 81.5236 95.2778 88.756 97.7157C95.9885 100.154 106.365 107.883 106.365 107.883L106.012 108.819C106.012 108.819 94.7512 101.465 88.006 98.9148C81.2609 96.3646 68.8879 94.8231 68.8879 94.8231L69.044 94.5627Z" fill="#986363"/>
<path d="M87.4278 93.4618C87.3757 91.6716 87.4639 92.44 87.5509 94.1883C87.6378 95.9366 87.1411 97.2105 87.1411 97.2105L86.8477 97.2001C86.8477 97.2001 87.48 95.2521 87.4278 93.4618Z" fill="#986363"/>
<path d="M82.55 94.5493C82.5253 93.7035 82.567 94.0666 82.6081 94.8925C82.6492 95.7185 82.4145 96.3203 82.4145 96.3203L82.2759 96.3154C82.2759 96.3154 82.5746 95.3951 82.55 94.5493Z" fill="#986363"/>
<path d="M94.2814 94.9729C94.2072 92.4244 94.3328 93.5184 94.4565 96.0071C94.5803 98.4958 93.8732 100.309 93.8732 100.309L93.4556 100.295C93.4556 100.295 94.3556 97.5214 94.2814 94.9729Z" fill="#986363"/>
<path d="M102.674 100.222C102.6 97.6734 102.726 98.7673 102.85 101.256C102.973 103.745 102.266 105.558 102.266 105.558L101.849 105.543C101.849 105.543 102.749 102.77 102.674 100.222Z" fill="#986363"/>
<path d="M92.5096 103.018C89.9767 102.727 91.0559 102.946 93.525 103.281C95.9941 103.617 97.8613 103.067 97.8613 103.067L97.8823 102.65C97.8823 102.65 95.0425 103.31 92.5096 103.018Z" fill="#986363"/>
<path d="M79.994 97.6934C77.4611 97.4021 78.5403 97.6206 81.0094 97.9562C83.4785 98.2918 85.3457 97.7419 85.3457 97.7419L85.3666 97.3246C85.3666 97.3246 82.5268 97.9848 79.994 97.6934Z" fill="#986363"/>
<g filter="url(#filter2_d)">
<path d="M163.279 129.565C155.813 133.332 146.242 142.613 151.636 149.912C156.271 156.184 163.008 155.456 171.541 150.193C180.074 144.931 196.393 132.441 195.418 126.973C194.443 121.505 170.745 125.799 163.279 129.565Z" fill="#C3E0C2"/>
</g>
<path d="M186.424 130.778C186.424 130.778 174.234 133.542 167.503 137.14C160.772 140.738 151.813 150.074 151.813 150.074L152.315 150.938C152.315 150.938 162.208 141.827 168.44 138.199C174.672 134.571 186.621 131.009 186.621 131.009L186.424 130.778Z" fill="#986363"/>
<path d="M168.111 132.725C167.867 130.951 167.906 131.723 168.109 133.462C168.312 135.201 169.012 136.375 169.012 136.375L169.3 136.317C169.3 136.317 168.355 134.5 168.111 132.725Z" fill="#986363"/>
<path d="M173.101 132.993C172.986 132.155 173.005 132.52 173.101 133.341C173.196 134.162 173.527 134.717 173.527 134.717L173.663 134.69C173.663 134.69 173.217 133.831 173.101 132.993Z" fill="#986363"/>
<path d="M161.601 135.347C161.253 132.821 161.31 133.92 161.599 136.395C161.887 138.87 162.884 140.542 162.884 140.542L163.293 140.459C163.293 140.459 161.948 137.872 161.601 135.347Z" fill="#986363"/>
<path d="M154.188 141.908C153.841 139.383 153.897 140.482 154.186 142.957C154.475 145.432 155.471 147.104 155.471 147.104L155.881 147.021C155.881 147.021 154.535 144.434 154.188 141.908Z" fill="#986363"/>
<path d="M164.675 142.989C167.125 142.284 166.097 142.678 163.717 143.416C161.337 144.155 159.405 143.92 159.405 143.92L159.315 143.512C159.315 143.512 162.225 143.695 164.675 142.989Z" fill="#986363"/>
<path d="M176.141 135.672C178.591 134.967 177.562 135.36 175.182 136.099C172.803 136.837 170.87 136.603 170.87 136.603L170.781 136.195C170.781 136.195 173.691 136.377 176.141 135.672Z" fill="#986363"/>
<g filter="url(#filter3_d)">
<path d="M56.5397 21.8466C49.6046 26.5185 41.2711 36.9257 47.5372 43.4917C52.9212 49.1332 59.5133 47.5674 67.32 41.2773C75.1266 34.9872 89.7532 20.5513 88.1011 15.2488C86.4491 9.94621 63.4748 17.1747 56.5397 21.8466Z" fill="#C3E0C2"/>
</g>
<path d="M79.6542 20.15C79.6542 20.15 67.9061 24.4198 61.6787 28.8325C55.4514 33.2452 47.7328 43.6295 47.7328 43.6295L48.3395 44.4244C48.3395 44.4244 57.0132 34.1458 62.7415 29.7656C68.4699 25.3854 79.8786 20.3546 79.8786 20.3546L79.6542 20.15Z" fill="#986363"/>
<path d="M61.7288 24.3764C61.2645 22.6466 61.4007 23.408 61.8196 25.1076C62.2385 26.8072 63.0803 27.8847 63.0803 27.8847L63.3583 27.7905C63.3583 27.7905 62.1931 26.1062 61.7288 24.3764Z" fill="#986363"/>
<path d="M66.714 24.0168C66.4946 23.1996 66.559 23.5593 66.7569 24.3622C66.9548 25.1652 67.3525 25.6743 67.3525 25.6743L67.4838 25.6298C67.4838 25.6298 66.9334 24.834 66.714 24.0168Z" fill="#986363"/>
<path d="M55.5984 27.7923C54.9374 25.3299 55.1313 26.4138 55.7277 28.8332C56.3241 31.2525 57.5223 32.7865 57.5223 32.7865L57.918 32.6524C57.918 32.6524 56.2594 30.2547 55.5984 27.7923Z" fill="#986363"/>
<path d="M49.0667 35.231C48.4057 32.7686 48.5996 33.8525 49.196 36.2719C49.7923 38.6913 50.9906 40.2252 50.9906 40.2252L51.3863 40.0911C51.3863 40.0911 49.7276 37.6934 49.0667 35.231Z" fill="#986363"/>
<path d="M59.6066 34.9899C61.949 33.9833 60.9781 34.5026 58.7094 35.5333C56.4408 36.5639 54.4943 36.5736 54.4943 36.5736L54.3544 36.1799C54.3544 36.1799 57.2642 35.9965 59.6066 34.9899Z" fill="#986363"/>
<path d="M70.0651 26.2942C72.4075 25.2876 71.4366 25.8069 69.1679 26.8376C66.8993 27.8683 64.9528 27.8779 64.9528 27.8779L64.8129 27.4842C64.8129 27.4842 67.7227 27.3008 70.0651 26.2942Z" fill="#986363"/>
<path opacity="0.95" d="M32.538 14.8903C24.7524 16.4768 14.795 20.586 20.0688 25.7513C25.3427 30.9167 25.1703 38.4767 38.1338 34.2443C51.0974 30.012 49.8297 27.6941 48.263 20.0059C46.6963 12.3176 40.3236 13.3037 32.538 14.8903Z" fill="#D8CBDC"/>
<g opacity="0.95" filter="url(#filter4_d)">
<path d="M47.7135 12.7833C43.6723 8.21845 37.1216 3.17822 35.7125 8.66436C34.3034 14.1505 29.2137 16.9363 36.9996 23.9269C44.7854 30.9174 45.8393 29.1858 50.3471 25.1951C54.8548 21.2044 51.7547 17.3481 47.7135 12.7833Z" fill="#D1C3D5"/>
</g>
<g opacity="0.95" filter="url(#filter5_d)">
<path d="M65.7754 24.5407C69.3066 17.6679 72.2443 7.61294 65.1173 8.47337C57.9904 9.33381 52.3585 4.60521 47.686 17.0162C43.0135 29.4272 45.5432 29.8749 52.3301 33.3619C59.1169 36.8489 62.2443 31.4135 65.7754 24.5407Z" fill="#D8CBDC"/>
</g>
<g opacity="0.95" filter="url(#filter6_d)">
<path d="M42.3598 26.2562C39.1132 29.1303 35.5286 33.7892 39.4304 34.7913C43.3321 35.7935 45.3134 39.4133 50.2851 33.876C55.2568 28.3387 54.0253 27.5891 51.1871 24.3832C48.3489 21.1772 45.6063 23.382 42.3598 26.2562Z" fill="#E1D4A4"/>
</g>
<g opacity="0.95" filter="url(#filter7_d)">
<path d="M31.8529 32.7464C25.9037 38.0133 19.3349 46.5506 26.4848 48.387C33.6347 50.2234 37.2655 56.8567 46.376 46.7097C55.4866 36.5626 53.2299 35.1891 48.0289 29.3142C42.828 23.4393 37.8022 27.4796 31.8529 32.7464Z" fill="#D8CBDC"/>
</g>
<g opacity="0.95" filter="url(#filter8_d)">
<path d="M47.9866 39.7856C49.3739 46.593 52.9667 55.2994 57.4831 50.6882C61.9995 46.077 68.6096 46.2277 64.909 34.8929C61.2084 23.5581 59.1818 24.6665 52.4595 26.0364C45.7372 27.4063 46.5994 32.9782 47.9866 39.7856Z" fill="#D0C3D4"/>
</g>
<defs>
<filter id="filter0_d" x="10.9302" y="18.1931" width="322.118" height="296.138" filterUnits="userSpaceOnUse" color-interpolation-filters="sRGB">
<feFlood flood-opacity="0" result="BackgroundImageFix"/>
<feColorMatrix in="SourceAlpha" type="matrix" values="0 0 0 0 0 0 0 0 0 0 0 0 0 0 0 0 0 0 127 0"/>
<feOffset dy="2"/>
<feGaussianBlur stdDeviation="2"/>
<feColorMatrix type="matrix" values="0 0 0 0 0 0 0 0 0 0 0 0 0 0 0 0 0 0 0.15 0"/>
<feBlend mode="normal" in2="BackgroundImageFix" result="effect1_dropShadow"/>
<feBlend mode="normal" in="SourceGraphic" in2="effect1_dropShadow" result="shape"/>
</filter>
<filter id="filter1_d" x="54.6484" y="73.5483" width="59.8946" height="60.3054" filterUnits="userSpaceOnUse" color-interpolation-filters="sRGB">
<feFlood flood-opacity="0" result="BackgroundImageFix"/>
<feColorMatrix in="SourceAlpha" type="matrix" values="0 0 0 0 0 0 0 0 0 0 0 0 0 0 0 0 0 0 127 0"/>
<feOffset dy="4"/>
<feGaussianBlur stdDeviation="2"/>
<feColorMatrix type="matrix" values="0 0 0 0 0.199062 0 0 0 0 0.758333 0 0 0 0 0.288546 0 0 0 0.15 0"/>
<feBlend mode="normal" in2="BackgroundImageFix" result="effect1_dropShadow"/>
<feBlend mode="normal" in="SourceGraphic" in2="effect1_dropShadow" result="shape"/>
</filter>
<filter id="filter2_d" x="143.703" y="113.866" width="56.462" height="57.0904" filterUnits="userSpaceOnUse" color-interpolation-filters="sRGB">
<feFlood flood-opacity="0" result="BackgroundImageFix"/>
<feColorMatrix in="SourceAlpha" type="matrix" values="0 0 0 0 0 0 0 0 0 0 0 0 0 0 0 0 0 0 127 0"/>
<feOffset dy="4"/>
<feGaussianBlur stdDeviation="2"/>
<feColorMatrix type="matrix" values="0 0 0 0 0.199062 0 0 0 0 0.758333 0 0 0 0 0.288546 0 0 0 0.15 0"/>
<feBlend mode="normal" in2="BackgroundImageFix" result="effect1_dropShadow"/>
<feBlend mode="normal" in="SourceGraphic" in2="effect1_dropShadow" result="shape"/>
</filter>
<filter id="filter3_d" x="39.7485" y="6.66272" width="52.9704" height="53.7526" filterUnits="userSpaceOnUse" color-interpolation-filters="sRGB">
<feFlood flood-opacity="0" result="BackgroundImageFix"/>
<feColorMatrix in="SourceAlpha" type="matrix" values="0 0 0 0 0 0 0 0 0 0 0 0 0 0 0 0 0 0 127 0"/>
<feOffset dy="4"/>
<feGaussianBlur stdDeviation="2"/>
<feColorMatrix type="matrix" values="0 0 0 0 0.199062 0 0 0 0 0.758333 0 0 0 0 0.288546 0 0 0 0.15 0"/>
<feBlend mode="normal" in2="BackgroundImageFix" result="effect1_dropShadow"/>
<feBlend mode="normal" in="SourceGraphic" in2="effect1_dropShadow" result="shape"/>
</filter>
<filter id="filter4_d" x="24.2661" y="1.98511" width="34.769" height="35.3896" filterUnits="userSpaceOnUse" color-interpolation-filters="sRGB">
<feFlood flood-opacity="0" result="BackgroundImageFix"/>
<feColorMatrix in="SourceAlpha" type="matrix" values="0 0 0 0 0 0 0 0 0 0 0 0 0 0 0 0 0 0 127 0"/>
<feOffset dy="2"/>
<feGaussianBlur stdDeviation="2"/>
<feColorMatrix type="matrix" values="0 0 0 0 0 0 0 0 0 0 0 0 0 0 0 0 0 0 0.15 0"/>
<feBlend mode="normal" in2="BackgroundImageFix" result="effect1_dropShadow"/>
<feBlend mode="normal" in="SourceGraphic" in2="effect1_dropShadow" result="shape"/>
</filter>
<filter id="filter5_d" x="37.8252" y="0.275879" width="38.7561" height="42.7163" filterUnits="userSpaceOnUse" color-interpolation-filters="sRGB">
<feFlood flood-opacity="0" result="BackgroundImageFix"/>
<feColorMatrix in="SourceAlpha" type="matrix" values="0 0 0 0 0 0 0 0 0 0 0 0 0 0 0 0 0 0 127 0"/>
<feOffset dy="2"/>
<feGaussianBlur stdDeviation="2"/>
<feColorMatrix type="matrix" values="0 0 0 0 0 0 0 0 0 0 0 0 0 0 0 0 0 0 0.15 0"/>
<feBlend mode="normal" in2="BackgroundImageFix" result="effect1_dropShadow"/>
<feBlend mode="normal" in="SourceGraphic" in2="effect1_dropShadow" result="shape"/>
</filter>
<filter id="filter6_d" x="32.1025" y="19.0491" width="27.4796" height="27.0382" filterUnits="userSpaceOnUse" color-interpolation-filters="sRGB">
<feFlood flood-opacity="0" result="BackgroundImageFix"/>
<feColorMatrix in="SourceAlpha" type="matrix" values="0 0 0 0 0 0 0 0 0 0 0 0 0 0 0 0 0 0 127 0"/>
<feOffset dy="2"/>
<feGaussianBlur stdDeviation="2"/>
<feColorMatrix type="matrix" values="0 0 0 0 0 0 0 0 0 0 0 0 0 0 0 0 0 0 0.25 0"/>
<feBlend mode="normal" in2="BackgroundImageFix" result="effect1_dropShadow"/>
<feBlend mode="normal" in="SourceGraphic" in2="effect1_dropShadow" result="shape"/>
</filter>
<filter id="filter7_d" x="16.3862" y="21.2046" width="43.6961" height="42.8873" filterUnits="userSpaceOnUse" color-interpolation-filters="sRGB">
<feFlood flood-opacity="0" result="BackgroundImageFix"/>
<feColorMatrix in="SourceAlpha" type="matrix" values="0 0 0 0 0 0 0 0 0 0 0 0 0 0 0 0 0 0 127 0"/>
<feOffset dy="2"/>
<feGaussianBlur stdDeviation="2"/>
<feColorMatrix type="matrix" values="0 0 0 0 0 0 0 0 0 0 0 0 0 0 0 0 0 0 0.25 0"/>
<feBlend mode="normal" in2="BackgroundImageFix" result="effect1_dropShadow"/>
<feBlend mode="normal" in="SourceGraphic" in2="effect1_dropShadow" result="shape"/>
</filter>
<filter id="filter8_d" x="41.4736" y="22.9097" width="30.573" height="36.9965" filterUnits="userSpaceOnUse" color-interpolation-filters="sRGB">
<feFlood flood-opacity="0" result="BackgroundImageFix"/>
<feColorMatrix in="SourceAlpha" type="matrix" values="0 0 0 0 0 0 0 0 0 0 0 0 0 0 0 0 0 0 127 0"/>
<feOffset dy="3"/>
<feGaussianBlur stdDeviation="2"/>
<feColorMatrix type="matrix" values="0 0 0 0 0 0 0 0 0 0 0 0 0 0 0 0 0 0 0.15 0"/>
<feBlend mode="normal" in2="BackgroundImageFix" result="effect1_dropShadow"/>
<feBlend mode="normal" in="SourceGraphic" in2="effect1_dropShadow" result="shape"/>
</filter>
</defs>
</svg>
