<svg width="82" height="400" viewBox="0 0 82 400" fill="none" xmlns="http://www.w3.org/2000/svg">
<g filter="url(#filter0_d)">
<path d="M-37.9752 387.295C-24.4586 284.729 20.3663 213.391 13.6527 182.83C6.93917 152.27 72.0269 -4.87583 76.5906 9.95058C79.4903 19.3712 29.335 158.386 31.9529 181.61C34.5708 204.834 -13.2831 333.225 -15.029 392.409L-37.9752 387.295Z" fill="#905F43"/>
</g>
<path d="M63.877 41.5955C67.5091 38.5915 63.0337 40.7795 61.7221 43.5578C60.4105 46.336 61.0028 44.3587 58.8169 51.357C56.6311 58.3553 56.1048 55.0389 55.6466 57.5613C55.392 58.9623 55.9578 58.9777 56.5112 58.7145C57.1501 58.4106 57.5953 57.8199 57.9343 57.1989C60.9197 51.7295 60.4407 44.4375 63.877 41.5955Z" fill="#7E543C"/>
<path d="M27.5023 144.284C31.1343 141.28 26.6589 143.468 25.3473 146.246C24.0358 149.024 24.6281 147.047 22.4422 154.045C20.2563 161.044 19.7301 157.727 19.2718 160.25C19.0173 161.651 19.583 161.666 20.1364 161.403C20.7753 161.099 21.2205 160.508 21.5595 159.887C24.5449 154.418 24.0659 147.126 27.5023 144.284Z" fill="#7E543C"/>
<path d="M8.83014 264.085C12.4622 261.081 7.98679 263.269 6.67523 266.047C5.36367 268.825 5.95593 266.848 3.77006 273.846C1.58418 280.845 1.05796 277.528 0.599678 280.051C0.345135 281.452 0.91092 281.467 1.46428 281.204C2.10319 280.9 2.54843 280.309 2.8874 279.688C5.8728 274.219 5.39379 266.927 8.83014 264.085Z" fill="#7E543C"/>
<path d="M11.5153 232.838C11.2366 228.133 12.6872 232.899 11.549 235.753C10.4107 238.606 11.4535 236.825 7.8241 243.195C4.19472 249.566 6.97963 247.69 5.4468 249.745C4.59542 250.886 4.19841 250.483 4.01369 249.898C3.80042 249.224 3.92898 248.495 4.15217 247.824C6.11794 241.911 11.7791 237.29 11.5153 232.838Z" fill="#7E543C"/>
<path d="M26.2995 186.677C26.0208 181.972 27.4714 186.738 26.3331 189.591C25.1949 192.445 26.2377 190.663 22.6083 197.034C18.9789 203.404 21.7638 201.528 20.231 203.583C19.3796 204.725 18.9826 204.321 18.7979 203.737C18.5846 203.062 18.7132 202.334 18.9364 201.662C20.9021 195.75 26.5633 191.128 26.2995 186.677Z" fill="#7E543C"/>
<path d="M47.8917 98.0727C49.216 93.5492 48.9744 98.525 46.9405 100.828C44.9065 103.13 46.489 101.805 40.9238 106.578C35.3586 111.351 38.6131 110.524 36.4771 111.942C35.2906 112.729 35.0529 112.216 35.0761 111.603C35.1028 110.896 35.4695 110.254 35.906 109.697C39.7507 104.794 46.6387 102.352 47.8917 98.0727Z" fill="#7E543C"/>
<g filter="url(#filter1_d)">
<path d="M56.608 17.4803C63.8312 21.6932 72.8213 31.5387 66.9936 38.4968C61.9863 44.4752 55.3066 43.3396 47.1089 37.5684C38.9112 31.7971 23.3804 18.339 24.6855 12.9406C25.9906 7.54216 49.3849 13.2674 56.608 17.4803Z" fill="#C3E0C2"/>
</g>
<path d="M33.4321 17.2844C33.4321 17.2844 45.4322 20.7842 51.9323 24.7843C58.4324 28.7844 66.8073 38.647 66.8073 38.647L66.2534 39.4795C66.2534 39.4795 56.9321 29.7843 50.9321 25.7843C44.9321 21.7843 33.2215 17.5031 33.2215 17.5031L33.4321 17.2844Z" fill="#986363"/>
<path d="M51.5936 20.3408C51.9449 18.5846 51.8583 19.3532 51.5504 21.0764C51.2424 22.7995 50.4722 23.9293 50.4722 23.9293L50.1887 23.8533C50.1887 23.8533 51.2423 22.097 51.5936 20.3408Z" fill="#986363"/>
<path d="M46.596 20.3048C46.762 19.4751 46.7211 19.8383 46.5756 20.6523C46.4301 21.4664 46.0662 22.0002 46.0662 22.0002L45.9323 21.9643C45.9323 21.9643 46.43 21.1345 46.596 20.3048Z" fill="#986363"/>
<path d="M57.9324 23.3525C58.4325 20.8525 58.3092 21.9467 57.8708 24.3996C57.4324 26.8525 56.336 28.4609 56.336 28.4609L55.9324 28.3527C55.9324 28.3527 57.4323 25.8526 57.9324 23.3525Z" fill="#986363"/>
<path d="M64.9324 30.3525C65.4325 27.8525 65.3092 28.9467 64.8708 31.3996C64.4324 33.8525 63.336 35.4609 63.336 35.4609L62.9324 35.3527C62.9324 35.3527 64.4323 32.8526 64.9324 30.3525Z" fill="#986363"/>
<path d="M54.3992 30.7946C51.9965 29.9418 52.999 30.3972 55.3296 31.2787C57.6603 32.1603 59.6033 32.0439 59.6033 32.0439L59.7174 31.642C59.7174 31.642 56.8019 31.6474 54.3992 30.7946Z" fill="#986363"/>
<path d="M43.3992 22.7946C40.9965 21.9418 41.999 22.3972 44.3296 23.2787C46.6603 24.1603 48.6033 24.0439 48.6033 24.0439L48.7174 23.642C48.7174 23.642 45.8019 23.6474 43.3992 22.7946Z" fill="#986363"/>
<g filter="url(#filter2_d)">
<path d="M40.2567 116.48C33.0336 120.693 24.0435 130.539 29.8712 137.497C34.8785 143.475 41.5581 142.34 49.7558 136.568C57.9535 130.797 73.4844 117.339 72.1793 111.941C70.8741 106.542 47.4798 112.267 40.2567 116.48Z" fill="#C3E0C2"/>
</g>
<path d="M63.4326 116.284C63.4326 116.284 51.4326 119.784 44.9325 123.784C38.4324 127.784 30.0574 137.647 30.0574 137.647L30.6113 138.48C30.6113 138.48 39.9326 128.784 45.9326 124.784C51.9326 120.784 63.6433 116.503 63.6433 116.503L63.4326 116.284Z" fill="#986363"/>
<path d="M45.2711 119.341C44.9198 117.585 45.0064 118.353 45.3144 120.076C45.6223 121.799 46.3925 122.929 46.3925 122.929L46.676 122.853C46.676 122.853 45.6224 121.097 45.2711 119.341Z" fill="#986363"/>
<path d="M50.2687 119.305C50.1028 118.475 50.1437 118.838 50.2892 119.652C50.4347 120.466 50.7985 121 50.7985 121L50.9325 120.964C50.9325 120.964 50.4347 120.135 50.2687 119.305Z" fill="#986363"/>
<path d="M38.9324 122.353C38.4323 119.853 38.5556 120.947 38.994 123.4C39.4324 125.853 40.5287 127.461 40.5287 127.461L40.9323 127.353C40.9323 127.353 39.4325 124.853 38.9324 122.353Z" fill="#986363"/>
<path d="M31.9324 129.353C31.4323 126.853 31.5556 127.947 31.994 130.4C32.4324 132.853 33.5287 134.461 33.5287 134.461L33.9323 134.353C33.9323 134.353 32.4325 131.853 31.9324 129.353Z" fill="#986363"/>
<path d="M42.4656 129.795C44.8683 128.942 43.8657 129.397 41.5351 130.279C39.2045 131.16 37.2615 131.044 37.2615 131.044L37.1473 130.642C37.1473 130.642 40.0629 130.647 42.4656 129.795Z" fill="#986363"/>
<path d="M53.4656 121.795C55.8683 120.942 54.8657 121.397 52.5351 122.279C50.2045 123.16 48.2615 123.044 48.2615 123.044L48.1473 122.642C48.1473 122.642 51.0629 122.647 53.4656 121.795Z" fill="#986363"/>
<g filter="url(#filter3_d)">
<path d="M45.608 41.4803C52.8312 45.6932 61.8213 55.5387 55.9936 62.4968C50.9863 68.4752 44.3066 67.3396 36.1089 61.5684C27.9112 55.7971 12.3804 42.339 13.6855 36.9406C14.9906 31.5422 38.3849 37.2674 45.608 41.4803Z" fill="#C3E0C2"/>
</g>
<path d="M22.4321 41.2844C22.4321 41.2844 34.4322 44.7842 40.9323 48.7843C47.4324 52.7844 55.8073 62.647 55.8073 62.647L55.2534 63.4795C55.2534 63.4795 45.9321 53.7843 39.9321 49.7843C33.9321 45.7843 22.2215 41.5031 22.2215 41.5031L22.4321 41.2844Z" fill="#986363"/>
<path d="M40.5936 44.3408C40.9449 42.5846 40.8583 43.3532 40.5504 45.0764C40.2424 46.7995 39.4722 47.9293 39.4722 47.9293L39.1887 47.8533C39.1887 47.8533 40.2423 46.097 40.5936 44.3408Z" fill="#986363"/>
<path d="M35.596 44.3048C35.762 43.4751 35.7211 43.8383 35.5756 44.6523C35.4301 45.4664 35.0662 46.0002 35.0662 46.0002L34.9323 45.9643C34.9323 45.9643 35.43 45.1345 35.596 44.3048Z" fill="#986363"/>
<path d="M46.9324 47.3525C47.4325 44.8525 47.3092 45.9467 46.8708 48.3996C46.4324 50.8525 45.336 52.4609 45.336 52.4609L44.9324 52.3527C44.9324 52.3527 46.4323 49.8526 46.9324 47.3525Z" fill="#986363"/>
<path d="M53.9324 54.3525C54.4325 51.8525 54.3092 52.9467 53.8708 55.3996C53.4324 57.8525 52.336 59.4609 52.336 59.4609L51.9324 59.3527C51.9324 59.3527 53.4323 56.8526 53.9324 54.3525Z" fill="#986363"/>
<path d="M43.3992 54.7946C40.9965 53.9418 41.999 54.3972 44.3296 55.2787C46.6603 56.1603 48.6033 56.0439 48.6033 56.0439L48.7174 55.642C48.7174 55.642 45.8019 55.6474 43.3992 54.7946Z" fill="#986363"/>
<path d="M32.3992 46.7946C29.9965 45.9418 30.999 46.3972 33.3296 47.2787C35.6603 48.1603 37.6033 48.0439 37.6033 48.0439L37.7174 47.642C37.7174 47.642 34.8019 47.6474 32.3992 46.7946Z" fill="#986363"/>
<defs>
<filter id="filter0_d" x="-43.782" y="0.327637" width="125.344" height="399.615" filterUnits="userSpaceOnUse" color-interpolation-filters="sRGB">
<feFlood flood-opacity="0" result="BackgroundImageFix"/>
<feColorMatrix in="SourceAlpha" type="matrix" values="0 0 0 0 0 0 0 0 0 0 0 0 0 0 0 0 0 0 127 0"/>
<feOffset dy="2"/>
<feGaussianBlur stdDeviation="2"/>
<feColorMatrix type="matrix" values="0 0 0 0 0 0 0 0 0 0 0 0 0 0 0 0 0 0 0.15 0"/>
<feBlend mode="normal" in2="BackgroundImageFix" result="effect1_dropShadow"/>
<feBlend mode="normal" in="SourceGraphic" in2="effect1_dropShadow" result="shape"/>
</filter>
<filter id="filter1_d" x="20" y="2" width="54.8647" height="55.5689" filterUnits="userSpaceOnUse" color-interpolation-filters="sRGB">
<feFlood flood-opacity="0" result="BackgroundImageFix"/>
<feColorMatrix in="SourceAlpha" type="matrix" values="0 0 0 0 0 0 0 0 0 0 0 0 0 0 0 0 0 0 127 0"/>
<feOffset dy="4"/>
<feGaussianBlur stdDeviation="2"/>
<feColorMatrix type="matrix" values="0 0 0 0 0.199062 0 0 0 0 0.758333 0 0 0 0 0.288546 0 0 0 0.15 0"/>
<feBlend mode="normal" in2="BackgroundImageFix" result="effect1_dropShadow"/>
<feBlend mode="normal" in="SourceGraphic" in2="effect1_dropShadow" result="shape"/>
</filter>
<filter id="filter2_d" x="22" y="101" width="54.8647" height="55.5689" filterUnits="userSpaceOnUse" color-interpolation-filters="sRGB">
<feFlood flood-opacity="0" result="BackgroundImageFix"/>
<feColorMatrix in="SourceAlpha" type="matrix" values="0 0 0 0 0 0 0 0 0 0 0 0 0 0 0 0 0 0 127 0"/>
<feOffset dy="4"/>
<feGaussianBlur stdDeviation="2"/>
<feColorMatrix type="matrix" values="0 0 0 0 0.199062 0 0 0 0 0.758333 0 0 0 0 0.288546 0 0 0 0.15 0"/>
<feBlend mode="normal" in2="BackgroundImageFix" result="effect1_dropShadow"/>
<feBlend mode="normal" in="SourceGraphic" in2="effect1_dropShadow" result="shape"/>
</filter>
<filter id="filter3_d" x="9" y="26" width="54.8647" height="55.5689" filterUnits="userSpaceOnUse" color-interpolation-filters="sRGB">
<feFlood flood-opacity="0" result="BackgroundImageFix"/>
<feColorMatrix in="SourceAlpha" type="matrix" values="0 0 0 0 0 0 0 0 0 0 0 0 0 0 0 0 0 0 127 0"/>
<feOffset dy="4"/>
<feGaussianBlur stdDeviation="2"/>
<feColorMatrix type="matrix" values="0 0 0 0 0.199062 0 0 0 0 0.758333 0 0 0 0 0.288546 0 0 0 0.15 0"/>
<feBlend mode="normal" in2="BackgroundImageFix" result="effect1_dropShadow"/>
<feBlend mode="normal" in="SourceGraphic" in2="effect1_dropShadow" result="shape"/>
</filter>
</defs>
</svg>
