<svg width="496" height="457" viewBox="0 0 496 457" fill="none" xmlns="http://www.w3.org/2000/svg">
<g filter="url(#filter0_d)">
<path d="M313.35 385.253C407.065 355.312 461.128 285.22 413.162 184.26C365.196 83.2994 256.259 87.5915 203.547 59.1649C150.835 30.7383 291.951 71.5228 346.699 100.113C401.447 128.704 432.837 176.952 438.722 234.546C444.608 292.141 408.579 371.8 326.545 388.332C244.511 404.864 220.684 385.456 180.804 356.534C140.924 327.611 72.5892 269.378 62.5566 208.818C52.524 148.258 64.3801 141.068 131.789 90.6481C199.198 40.2286 293.406 112.371 242.079 90.6477C190.752 68.9243 110.444 94.4708 84.2945 145.816C58.1453 197.162 74.1424 216.892 88.7815 248.805C103.421 280.718 219.634 415.194 313.35 385.253Z" fill="#384974"/>
</g>
<defs>
<filter id="filter0_d" x="0" y="0" width="496" height="456.534" filterUnits="userSpaceOnUse" color-interpolation-filters="sRGB">
<feFlood flood-opacity="0" result="BackgroundImageFix"/>
<feColorMatrix in="SourceAlpha" type="matrix" values="0 0 0 0 0 0 0 0 0 0 0 0 0 0 0 0 0 0 127 0"/>
<feOffset dy="4"/>
<feGaussianBlur stdDeviation="2"/>
<feColorMatrix type="matrix" values="0 0 0 0 0 0 0 0 0 0 0 0 0 0 0 0 0 0 0.25 0"/>
<feBlend mode="normal" in2="BackgroundImageFix" result="effect1_dropShadow"/>
<feBlend mode="normal" in="SourceGraphic" in2="effect1_dropShadow" result="shape"/>
</filter>
</defs>
</svg>
