<svg width="71" height="73" viewBox="0 0 71 73" fill="none" xmlns="http://www.w3.org/2000/svg">
<g filter="url(#filter0_d)">
<path d="M47.6215 21.3343C57.2574 26.9544 69.2506 40.0888 61.4762 49.3711C54.7963 57.3466 45.8853 55.8317 34.9493 48.1326C24.0132 40.4335 3.29439 22.4798 5.03549 15.2781C6.77658 8.07639 37.9855 15.7141 47.6215 21.3343Z" fill="#C3E0C2"/>
</g>
<path d="M16.7038 21.073C16.7038 21.073 32.7123 25.7419 41.3837 31.0782C50.0551 36.4144 61.2277 49.5715 61.2277 49.5715L60.4887 50.6822C60.4887 50.6822 48.0537 37.7484 40.0495 32.4122C32.0452 27.076 16.4227 21.3647 16.4227 21.3647L16.7038 21.073Z" fill="#986363"/>
<path d="M40.9319 25.1503C41.4006 22.8075 41.2851 23.8328 40.8742 26.1316C40.4634 28.4303 39.4359 29.9375 39.4359 29.9375L39.0577 29.8361C39.0577 29.8361 40.4633 27.4932 40.9319 25.1503Z" fill="#986363"/>
<path d="M34.2649 25.1023C34.4863 23.9955 34.4318 24.4799 34.2377 25.5659C34.0436 26.6519 33.5582 27.364 33.5582 27.364L33.3795 27.3161C33.3795 27.3161 34.0435 26.2092 34.2649 25.1023Z" fill="#986363"/>
<path d="M49.3883 29.1681C50.0554 25.833 49.891 27.2926 49.3061 30.5649C48.7213 33.8372 47.2587 35.9828 47.2587 35.9828L46.7202 35.8385C46.7202 35.8385 48.7211 32.5032 49.3883 29.1681Z" fill="#986363"/>
<path d="M58.7264 38.5064C59.3935 35.1712 59.2291 36.6309 58.6442 39.9032C58.0594 43.1755 56.5968 45.3211 56.5968 45.3211L56.0584 45.1768C56.0584 45.1768 58.0593 41.8415 58.7264 38.5064Z" fill="#986363"/>
<path d="M44.6747 39.0961C41.4694 37.9585 42.8068 38.5659 45.916 39.7419C49.0251 40.918 51.6172 40.7627 51.6172 40.7627L51.7694 40.2265C51.7694 40.2265 47.88 40.2338 44.6747 39.0961Z" fill="#986363"/>
<path d="M30.0004 28.4238C26.7951 27.2862 28.1325 27.8936 31.2417 29.0696C34.3508 30.2457 36.9428 30.0904 36.9428 30.0904L37.0951 29.5542C37.0951 29.5542 33.2057 29.5615 30.0004 28.4238Z" fill="#986363"/>
<defs>
<filter id="filter0_d" x="0.121094" y="0.682922" width="70.5194" height="71.4589" filterUnits="userSpaceOnUse" color-interpolation-filters="sRGB">
<feFlood flood-opacity="0" result="BackgroundImageFix"/>
<feColorMatrix in="SourceAlpha" type="matrix" values="0 0 0 0 0 0 0 0 0 0 0 0 0 0 0 0 0 0 127 0"/>
<feOffset dy="4"/>
<feGaussianBlur stdDeviation="2"/>
<feColorMatrix type="matrix" values="0 0 0 0 0.199062 0 0 0 0 0.758333 0 0 0 0 0.288546 0 0 0 0.15 0"/>
<feBlend mode="normal" in2="BackgroundImageFix" result="effect1_dropShadow"/>
<feBlend mode="normal" in="SourceGraphic" in2="effect1_dropShadow" result="shape"/>
</filter>
</defs>
</svg>
