<svg xmlns="http://www.w3.org/2000/svg" viewBox="0 0 116.8301 44.3136">
    <defs>
        <style>
            .cls-1 {
                fill:none;
                stroke:#1d1d1b;
                stroke-miterlimit:22.926;
                stroke-width:0.629px;
            }
            .cls-2, .cls-3 {
                fill:#1d1d1b;
            }
            .cls-3 {
                fill-rule:evenodd;
            }
        </style>
    </defs>
    <title>RINGANA_Logo-neu</title>
    <g id="Ebene_2" data-name="Ebene 2">
        <path class="cls-1" d="M239.96429,398.3144h111.3613a2.42372,2.42372,0,0,1,2.4199,2.4141v38.8574a2.42358,2.42358,0,0,1-2.4199,2.4131H239.96429a2.42358,2.42358,0,0,1-2.4199-2.4131V400.7285A2.42372,2.42372,0,0,1,239.96429,398.3144Z" transform="translate(-237.22989 -397.9999)"/>
        <path class="cls-2" d="M258.11559,419.0239a7.43786,7.43786,0,0,0-.7158-2.938,7.86292,7.86292,0,0,0-2.04-2.8027,4.4232,4.4232,0,0,0-2.999-1.1612,7.42674,7.42674,0,0,0-.75.0581v13.2017a2.20823,2.20823,0,0,0,.3339.0713c.129.01949.229.0332.2959.0478a6.34129,6.34129,0,0,0,4.9014-2.8799,6.32689,6.32689,0,0,0,.9736-3.5971m-6.5048,12.81h-1.834V410.3398h1.834a7.6834,7.6834,0,0,1,4.11711,1.0273,7.46359,7.46359,0,0,1,2.54109,2.5176,10.68793,10.68793,0,0,1,1.23191,2.8462,12.11643,12.11643,0,0,1,.397,2.293,8.32776,8.32776,0,0,1-.66411,3.20069,8.54453,8.54453,0,0,1-1.9351,2.86031,7.17014,7.17014,0,0,1-2.9941,1.76269l4.8711,4.98631h-2.522l-4.2407-4.36031h-.8022Z" transform="translate(-237.22989 -397.9999)"/>
        <polygon class="cls-2" points="43.668 33.834 41.777 33.834 41.777 12.231 47.651 15.321 47.651 12.34 49.543 12.34 49.543 33.834 47.651 33.834 47.651 17.441 43.668 15.35 43.668 33.834"/>
        <path class="cls-2" d="M300.33829,415.6997h1.834v16.1342a9.75421,9.75421,0,0,1-6.1709-1.86231,10.66841,10.66841,0,0,1-3.4302-4.34659,11.59061,11.59061,0,0,1-1.0361-4.36041,11.1276,11.1276,0,0,1,3.0522-7.68989,10.47833,10.47833,0,0,1,3.396-2.3789,10.343,10.343,0,0,1,4.189-.855v1.8911a8.3692,8.3692,0,0,0-4.0991,1.1225,9.18954,9.18954,0,0,0-3.3189,3.1661,8.714,8.714,0,0,0-1.3281,4.6772,8.23574,8.23574,0,0,0,.602,3.0181,10.54533,10.54533,0,0,0,1.6202,2.7949,8.77463,8.77463,0,0,0,2.2299,1.9961,4.66183,4.66183,0,0,0,2.34961.75979.71334.71334,0,0,1,.11039-.05769Z" transform="translate(-237.22989 -397.9999)"/>
        <path class="cls-2" d="M310.96529,412.8618v2.6372h3.3544v-2.6372a.80674.80674,0,0,0-.4931-.7437,2.46365,2.46365,0,0,0-1.1738-.2593,2.52107,2.52107,0,0,0-1.1954.2593.80574.80574,0,0,0-.4921.7437m0,18.9721h-1.8907V417.3901H308.1l-.6025-1.8911h1.5771v-2.6421a2.70865,2.70865,0,0,1,.52931-1.7139,3.00047,3.00047,0,0,1,1.34769-.9692,4.99822,4.99822,0,0,1,1.7051-.2969,4.45457,4.45457,0,0,1,2.5214.7031,2.52773,2.52773,0,0,1,1.0596,2.2769v18.977h-1.918V417.3901h-3.3544Z" transform="translate(-237.22989 -397.9999)"/>
        <polygon class="cls-2" points="85.537 33.834 83.645 33.834 83.645 12.231 89.52 15.321 89.52 12.34 91.412 12.34 91.412 33.834 89.52 33.834 89.52 17.441 85.537 15.35 85.537 33.834"/>
        <path class="cls-2" d="M336.87149,412.8618v2.6372h3.3545v-2.6372a.80683.80683,0,0,0-.4932-.7437,2.4678,2.4678,0,0,0-1.1748-.2593,2.51954,2.51954,0,0,0-1.1943.2593.80426.80426,0,0,0-.4922.7437m0,18.9721H334.9799V417.3901h-.97461l-.6016-1.8911h1.57621v-2.6421a2.7092,2.7092,0,0,1,.53029-1.7139,3.00081,3.00081,0,0,1,1.3476-.9692,4.99715,4.99715,0,0,1,1.70411-.2969,4.45594,4.45594,0,0,1,2.52249.7031,2.528,2.528,0,0,1,1.0596,2.2769v18.977h-1.918V417.3901h-3.3545Z" transform="translate(-237.22989 -397.9999)"/>
        <path class="cls-3" d="M270.6879,410.3588v-.1518a.65391.65391,0,0,1,.08109-.0723v-.08011a.62525.62525,0,0,1,.081-.07169.62525.62525,0,0,0-.081.07169v.08011a.65391.65391,0,0,0-.08109.0723Z" transform="translate(-237.22989 -397.9999)"/>
        <path class="cls-3" d="M270.62349,410.6625a.75482.75482,0,0,1,.081-.0722h.0801a1.595,1.595,0,0,0,.145-.0796h.0649c.0479-.0225.0967-.043.1612-.0732-.0645.0302-.1133.0507-.1612.0732h-.0649a1.595,1.595,0,0,1-.145.0796h-.0801a.75482.75482,0,0,0-.081.0722" transform="translate(-237.22989 -397.9999)"/>
        <path class="cls-3" d="M270.6879,410.9663v-.2242a.63381.63381,0,0,1,.08109-.08v-.0718h.081a.76745.76745,0,0,1,.0801-.0801,1.38177,1.38177,0,0,0,.145-.0718,1.38177,1.38177,0,0,1-.145.0718.76745.76745,0,0,0-.0801.0801h-.081v.0718a.63381.63381,0,0,0-.08109.08Z" transform="translate(-237.22989 -397.9999)"/>
        <path class="cls-3" d="M264.99409,408.55759v.37591a.253.253,0,0,0,.081.08009v.30281a.23485.23485,0,0,0,.0801.07319v.145a.32192.32192,0,0,0,.0649.086v.145h.0811v.07221a.19015.19015,0,0,0,.064.07279v.07911a.22993.22993,0,0,0,.081.0718v.08009h.0801a.23338.23338,0,0,0,.08061.07221v.0796a.17665.17665,0,0,0,.06539.0723v.0801h.07961c.09709.101.19429.2016.29.3027v.0732h.08109a2.93492,2.93492,0,0,0,.226.2168h.0811a.26017.26017,0,0,0,.0801.08009h.146a.25751.25751,0,0,0,.08.07181.3413.3413,0,0,1,.065-.07181h.1611a2.55352,2.55352,0,0,1,.21-.21829h.07961c.09709-.1005.19429-.2016.30709-.30271v-.08009a.62558.62558,0,0,1,.0811-.0717v-.0801a.8255.8255,0,0,1,.08-.0723v-.15181a.468.468,0,0,1,.065-.08009v-.52691a.24686.24686,0,0,1-.065-.06489v-.232a.24267.24267,0,0,1-.08-.0732v-.15091a.25333.25333,0,0,1-.0811-.08009v-.1518h-.08109v-.22411a.19991.19991,0,0,1-.06491-.07279v-.1514a.26961.26961,0,0,1-.08009-.0795v-.07231a.27005.27005,0,0,1-.081-.08009v-.06491a.38772.38772,0,0,1-.07961-.08689v-.07911a.21143.21143,0,0,1-.06539-.08009v-.0718a.28964.28964,0,0,1-.08061-.07911v-.07319a5.15535,5.15535,0,0,1-.3701-.376h-.0811v-.0796h-.0649a.23092.23092,0,0,1-.0801-.0723h-.38819c-.04781.0513-.09571.10109-.145.1519h-.064c-.081.0791-.16061.1523-.226.2241h-.08061c-.0801.08009-.1611.1519-.2251.22509v.07911c-.04929.0498-.0982.1011-.146.15189v.06491a.4269.4269,0,0,0-.0801.0859v.16019h-.081Z" transform="translate(-237.22989 -397.9999)"/>
        <path class="cls-3" d="M263.8969,414.5683v.3042a.25515.25515,0,0,0,.081.0786v.0664a1.52986,1.52986,0,0,0,.16119.1519h.0649v.0791h.4507c.0493-.022.09721-.0513.1621-.0791a.234.234,0,0,1,.064-.065h.145a1.55738,1.55738,0,0,1,.16211-.1533h.11279a.4677.4677,0,0,1,.064-.0786h.1611v-.0732h.08111a.45482.45482,0,0,1,.06489-.0791h.08011a.49178.49178,0,0,1,.06489-.0718h.08011v-.0801a.92014.92014,0,0,1,.081-.0718h.065v-.08a.7441.7441,0,0,0,.08009.0146c.146-.145.291-.2969.4521-.4487.0479-.021.0967-.04981.1607-.0801v.0801a.70863.70863,0,0,0-.0801.0727v.231a.648.648,0,0,0-.0806.0732v.2241a.57494.57494,0,0,0-.081.0787v.8252a.24487.24487,0,0,0,.081.0722v.232c.0156.0278.0156.0498.0479.0717v.0801a.274.274,0,0,0,.081.0718v.0791a.18345.18345,0,0,0,.065.0732v.0791h.08v.0718a.19492.19492,0,0,0,.065.0801v.0718h.0801a3.13631,3.13631,0,0,0,.226.2182h.0806a.2848.2848,0,0,0,.0801.0791h.145a.19732.19732,0,0,0,.0649.0718h.38721a.492.492,0,0,1,.065-.0718h.22609a.56493.56493,0,0,1,.08-.0791v-.0732h.0811v-.0791a.32306.32306,0,0,1,.0811-.0659v-.0718h.0639v-.231a.72193.72193,0,0,1,.0806-.0732v-.1509a.43772.43772,0,0,1,.0644-.0801v-.2241a.66146.66146,0,0,1,.0806-.0796v-.2241a.75182.75182,0,0,1,.0801-.0723v-.145a.755.755,0,0,1,.081-.1518v-.231a.41738.41738,0,0,1,.065-.0732v-.231a.62759.62759,0,0,1,.08011-.0718v-.3769a.24519.24519,0,0,1-.08011-.0801v-.4551a.25481.25481,0,0,1-.065-.0649v-.376a.27043.27043,0,0,1-.081-.0801v-.2241a.27957.27957,0,0,1-.0801-.0786v-.0733c-.04879-.0498-.0967-.1157-.145-.166v-.08c-.04879-.0499-.0967-.1011-.1445-.1519h-.2422c-.0489.0288-.0972.0581-.14509.0801a1.4386,1.4386,0,0,1-.146.0718h-.081c-.04791.0512-.09621.101-.145.1523h-.08011a.812.812,0,0,0-.0811.0786h-.04779c0,.0303-.01711.0513-.01711.0732h-.04789v-.1518H267.414v-.2241a.25939.25939,0,0,1-.08109-.0801v-.0718q-.19337-.1845-.38721-.3691h-.0649a.26018.26018,0,0,1-.0801-.0801h-.145a.76145.76145,0,0,1-.1616-.0718h-.45119a1.26323,1.26323,0,0,1-.146.0718h-.08011a1.29494,1.29494,0,0,1-.145.0801h-.06489a.99029.99029,0,0,0-.08111.0718h-.1611a.4541.4541,0,0,0-.064.08h-.0806a.79787.79787,0,0,0-.081.0723h-.0801v.0796h-.0649v.0654h-.0801v.0718a.37767.37767,0,0,0-.065.0801v.0718h-.081v.08c-.0479.0503-.0972.1011-.145.1509a.31834.31834,0,0,0-.1133.1533c-.0479.0498-.0957.1011-.145.1509v.0728a1.46653,1.46653,0,0,0-.1607.1523v.0791a.39308.39308,0,0,0-.0649.0718v.0732h-.0801v.145h-.08109v.3028a.73909.73909,0,0,0-.081.0801v.3759a.416.416,0,0,0-.064.0801v.1441a.59751.59751,0,0,0,.064.1518" transform="translate(-237.22989 -397.9999)"/>
        <path class="cls-3" d="M262.59069,422.1933v.1514a.26072.26072,0,0,0,.0811.0801v.1513h.064v.0723h.081v.0801h.1118a.12643.12643,0,0,0-.0161.0722h.0972a2.05128,2.05128,0,0,0,.2261.2315h.081v.0722h.064c.0478.0508.09711.1016.146.1514h.08011v.0654h.145a.36558.36558,0,0,0,.081.087h.145a.35765.35765,0,0,0,.08059.06539h.3062v.07911h.7578a.39318.39318,0,0,1,.06541-.07911h.22559a1.5846,1.5846,0,0,1,.1611-.06539h.064c.04931-.0293.0972-.0577.146-.087h.0801c.0488-.0214.0971-.0429.145-.0654h.081c.0479-.0215.09721-.043.16121-.0723a.51736.51736,0,0,1,.06489-.0791h.145a.70865.70865,0,0,1,.08111-.0722c.04779-.0215.09669-.0508.16059-.0801h.1451c.04931-.0508.0971-.1016.145-.1514.04931-.0224.0971-.0449.146-.0722a.67987.67987,0,0,1,.08-.0801c.0494-.0215.0972-.043.1622-.0723a.414.414,0,0,1,.0639-.0791,1.4262,1.4262,0,0,0,.145-.0722,1.50628,1.50628,0,0,1,.1621-.1524c.0479-.0215.0958-.05081.14511-.0791a.62451.62451,0,0,1,.08-.0732.73479.73479,0,0,1,.08059-.1519.23838.23838,0,0,1,.065-.0649c.0483-.022.0961-.0508.1455-.0791a.664.664,0,0,1,.0796-.1519.83411.83411,0,0,1,.081-.07271v-.07909h-.081v-.0723h-.0796a.21094.21094,0,0,1-.0655-.0801h-.08a.1873.1873,0,0,1-.065-.0718h-.08059a.25915.25915,0,0,1-.08-.08h-.14511a.24223.24223,0,0,1-.081-.0728h-.0811a.201.201,0,0,1-.0639-.0791h-.0811a.17647.17647,0,0,1-.0639-.0732h-.1622a.24008.24008,0,0,1-.08-.0718h-.065a.26478.26478,0,0,1-.081-.0801h-.145c-.0479-.0498-.0958-.1011-.1451-.1509h-.081a.77587.77587,0,0,1-.1607-.0732.19988.19988,0,0,1-.06389-.0791h-.08111a.26659.26659,0,0,1-.06489-.0659h-.16121a.39014.39014,0,0,1-.081-.086h-.064a1.67914,1.67914,0,0,1-.1611-.0659h-.065a.25671.25671,0,0,1-.081-.0791h-.2251a.23922.23922,0,0,1-.08059-.0718h-.37111a1.47578,1.47578,0,0,1-.145.0718h-.1621a.47294.47294,0,0,0-.064.0791c-.04779.022-.0971.044-.145.0659-.081.0801-.1621.1592-.2422.231a1.36848,1.36848,0,0,1-.145.0732h-.08059c-.04831.0498-.09711.1011-.145.1509h-.081a.423.423,0,0,0-.064.0801h-.081a.67057.67057,0,0,0-.08011.0718h-.065a.84412.84412,0,0,0-.081.0732h-.064v.0791h-.081v.0728h-.0811v.08h-.0801v.0718c-.081.0801-.1621.1592-.226.23149v.15281c-.0489.0498-.09669.1001-.1451.1509a.34266.34266,0,0,0-.1128.1435Z" transform="translate(-237.22989 -397.9999)"/>
        <path class="cls-3" d="M262.38079,429.7304h.0639a.28.28,0,0,0,.0811.0791h.0649a.23234.23234,0,0,0,.0811.0723h.08011c.04779.05079.09709.1015.145.1445h.081v.07229h.08109v.08011h.0796a1.58547,1.58547,0,0,1,.145.166h.0654a.23463.23463,0,0,0,.0796.0722h.3711c.0171-.0214.0493-.0429.0811-.0791h.081a.288.288,0,0,1,.065-.0869h.08011c.06489-.0722.145-.1445.226-.2246a1.57717,1.57717,0,0,0,.145-.0791c.04889-.0215.09669-.0439.16069-.0654a1.14459,1.14459,0,0,0,.145-.0723,1.44187,1.44187,0,0,1,.1621-.1513,1.52394,1.52394,0,0,0,.145-.0801,2.473,2.473,0,0,0,.2583-.2237h.0806a.43621.43621,0,0,1,.064-.08h.081v-.0723h.064v-.0801h.081c.0494-.0508.0972-.1006.1451-.1513v-.0723c.0971-.1016.1943-.2022.3071-.3037a.66964.66964,0,0,1,.08011-.1524c.06489-.0722.146-.1445.226-.2168a.68509.68509,0,0,1,.08109-.1523c.04791-.0508.0967-.10061.145-.1514v-.1523a.76966.76966,0,0,1,.0806-.0723v-.0791h.0644a.69621.69621,0,0,1,.0806-.0723v-.08a.46565.46565,0,0,1,.064-.0723.69333.69333,0,0,1,.081-.1514c.0972-.0947.1944-.1953.3062-.2968a.71062.71062,0,0,1,.0649-.1534,1.68842,1.68842,0,0,1,.16121-.15031.76507.76507,0,0,1,.081-.16609v-.0732c.04789-.0498.09669-.1006.145-.1514v-.0801a.65537.65537,0,0,1,.08109-.1513v-.3037a.24132.24132,0,0,1-.08109-.0723h-.08011v-.0801h-.4521c-.0811.0293-.1606.0586-.2261.0801h-.2256a1.38811,1.38811,0,0,1-.145.0723h-.30609a1.55282,1.55282,0,0,1-.146.0791h-.22511a.7084.7084,0,0,0-.0811.0722h-.3071v.0801h-.209v.0723h-.0806a.62887.62887,0,0,0-.081.07909h-.08009c-.081.08011-.145.15231-.21.22461-.06391.0293-.11321.0576-.16111.0791a1.57881,1.57881,0,0,0-.145.167c-.06489.02929-.1128.0508-.1621.07229a1.16351,1.16351,0,0,1-.145.07221,1.13458,1.13458,0,0,1-.1451.0781.67974.67974,0,0,0-.1928.1534h-.065c-.20989.2021-.41989.4052-.6128.6005h-.0654v.0723h-.0796v.0791h-.0654a.75417.75417,0,0,0-.0796.0723h-.08109v.0732h-.081a.41425.41425,0,0,0-.064.0791v.0723a.59583.59583,0,0,0-.081.0791v.1523h-.08011v.2168a.38133.38133,0,0,0-.0811.0869v.2168h-.0649v.3038a.92121.92121,0,0,0-.0811.0722v.0801a.62.62,0,0,0-.0639.1523v.2237a.76634.76634,0,0,0-.0811.1523Z" transform="translate(-237.22989 -397.9999)"/>
        <path class="cls-3" d="M268.01069,408.6225v.145a.6967.6967,0,0,0-.0811.07909v.22511a.50054.50054,0,0,0-.0649.0786v.44929a.5955.5955,0,0,0-.0801.07171v.4561a.23083.23083,0,0,0,.0801.0723v.1518a.22957.22957,0,0,0,.0649.08009v.07181h.0811c.0478.05119.0639.101.1128.1523h.5322a.6114.6114,0,0,1,.081-.0732h.064c.1289-.1231.2578-.253.38721-.3828v-.0723a.38547.38547,0,0,1,.06489-.0801.72585.72585,0,0,1,.0796-.1518c.0494-.044.0972-.0938.14651-.1451v-.15081a.63448.63448,0,0,1,.07959-.08009.74063.74063,0,0,1,.0811-.15191v-.06489a.652.652,0,0,1,.0639-.1524.705.705,0,0,1,.0811-.0786v-.1523a.61349.61349,0,0,1,.081-.07281v-.15129a.67394.67394,0,0,1,.0801-.0728v-.0791a.61594.61594,0,0,1,.065-.15181v-.07329a.66479.66479,0,0,1,.081-.0786v-.0732a.43109.43109,0,0,1,.064-.0791v-.99081a.18159.18159,0,0,1-.064-.07319v-.5347a.23078.23078,0,0,1-.081-.0722v-.065a.2143.2143,0,0,1-.065-.0801v-.0717a1.48235,1.48235,0,0,1-.1611-.1524v-.0796a.23889.23889,0,0,1-.0811-.0722.61534.61534,0,0,1-.0639-.15191v-.07909a.25462.25462,0,0,1-.0811-.0718.69533.69533,0,0,1-.07959-.1533.30062.30062,0,0,1-.06541-.1509,1.00434,1.00434,0,0,0-.1289-.1518h-.145v.0786c-.0489.05129-.09669.1011-.146.145a.71452.71452,0,0,0-.0801.15229.68573.68573,0,0,0-.0811.08011.61721.61721,0,0,0-.0639.15089,1.50314,1.50314,0,0,0-.08059.22411v.15189a.61766.61766,0,0,0-.08011.08011v.1518a.21408.21408,0,0,0-.06489.065v.1518a.73089.73089,0,0,0-.08111.07329v.07911a.6.6,0,0,0-.08.0717v.1519h-.0811v.15229a.41709.41709,0,0,0-.064.08011v.3027a.64792.64792,0,0,0-.081.0733v.31789a.73814.73814,0,0,0-.065.145v.15091a.72366.72366,0,0,0-.08.1518Z" transform="translate(-237.22989 -397.9999)"/>
        <path class="cls-3" d="M268.65569,411.1181a.69261.69261,0,0,0-.0811.0718h-.081v.1523h.081v.0796a.2459.2459,0,0,0,.0811.0723v.0801a2.76409,2.76409,0,0,0,.2261.2168v.0859c.0478.0513.09611.1021.145.145v.0733c.0639.0791.145.1508.226.2378v.08a.2484.2484,0,0,0,.08011.0723h.065c.081.0796.16059.1587.24169.2319h.145a.19961.19961,0,0,0,.064.0718h.3881a.39566.39566,0,0,1,.064-.0718h.0811a.6502.6502,0,0,1,.08-.08h.146c.064-.0723.145-.1441.22511-.2242a1.47,1.47,0,0,0,.146-.08,1.47718,1.47718,0,0,1,.16069-.1519.81661.81661,0,0,1,.081-.144.45018.45018,0,0,1,.064-.0801c.04931-.022.0972-.043.1621-.065a.645.645,0,0,1,.064-.1518.7403.7403,0,0,1,.081-.0801.60649.60649,0,0,1,.064-.1509.41144.41144,0,0,0,.1621-.2241.67285.67285,0,0,1,.08011-.0801.66164.66164,0,0,1,.06489-.167.86266.86266,0,0,1,.08011-.144.38573.38573,0,0,1,.06489-.0801v-.1518a.66864.66864,0,0,1,.08111-.0718v-.1524a.86345.86345,0,0,1,.08009-.145v-.5278a.24227.24227,0,0,1-.08009-.0791v-.1519q-.14581-.153-.291-.3042h-.16121a.23874.23874,0,0,1-.081-.0717.41023.41023,0,0,0-.064.0717h-.3071a.48827.48827,0,0,0-.064.0791h-.24169a.48841.48841,0,0,0-.06541.0733h-.08059a1.28069,1.28069,0,0,1-.145.0786h-.08011a.74918.74918,0,0,0-.081.0732h-.145a.59724.59724,0,0,0-.0811.0801h-.064c-.04879.0278-.0971.0498-.145.0718a.702.702,0,0,0-.081.0791h-.0811a.83548.83548,0,0,0-.081.0727h-.1451a.49409.49409,0,0,0-.0639.0723h-.0811a.63446.63446,0,0,0-.07959.0801h-.146v.0718h-.08011c-.1621.1523-.3071.3042-.4521.4492v.0791h-.0811a.47032.47032,0,0,0-.0639.0718v.1518a.70047.70047,0,0,0-.0811.0801.2459.2459,0,0,0,.0811.0723Z" transform="translate(-237.22989 -397.9999)"/>
        <path class="cls-3" d="M271.1879,419.0244v.1518a.71656.71656,0,0,0-.081.15239v.22361a.81479.81479,0,0,0-.08011.0791v.2251a.70924.70924,0,0,0-.0811.1509v.3052a.23337.23337,0,0,0-.0639.0649v.30319a.728.728,0,0,0-.0811.15191v1.1299a.721.721,0,0,0,.0811.1508v.0723a.2158.2158,0,0,0,.0639.08009v.07221a.27035.27035,0,0,0,.0811.0791h.08011a.249.249,0,0,0,.081.0723h.06489c.0479-.0508.0972-.10161.14511-.1514h.081a.67734.67734,0,0,1,.08009-.07221.58353.58353,0,0,1,.06491-.15239,1.25546,1.25546,0,0,0,.14509-.0722.5692.5692,0,0,1,.081-.0786.69854.69854,0,0,1,.0801-.1529c.04881-.021.0967-.04291.145-.06491a1.59519,1.59519,0,0,1,.1616-.15239.73821.73821,0,0,1,.0801-.1518c.0493-.05081.0972-.1021.145-.1509a.68543.68543,0,0,1,.065-.1533c.0483-.021.09711-.0498.16111-.07961.04879-.043.09719-.09419.146-.14409a.69638.69638,0,0,1,.08009-.1523c.0478-.0498.0972-.10061.145-.1519a.67788.67788,0,0,1,.0811-.1518c.0966-.0942.19381-.1953.3056-.29691a.63326.63326,0,0,1,.0655-.15229.72767.72767,0,0,1,.0795-.1509,1.3088,1.3088,0,0,0,.146-.0732.74892.74892,0,0,1,.0801-.1519.56819.56819,0,0,1,.065-.0791.69111.69111,0,0,1,.08-.1519,1.5539,1.5539,0,0,1,.16211-.1518v-.0723c.04789-.0508.09719-.102.14509-.1518v-.0801l.145-.1509v-.0659a.74534.74534,0,0,1,.081-.0723v-.0801c.04791-.0507.0967-.10051.1451-.1518v-.1509a.61473.61473,0,0,1,.081-.0732v-.07861a.69262.69262,0,0,1,.0796-.15239v-.22361a.43274.43274,0,0,1,.0654-.08009v-.0732a.65261.65261,0,0,1,.0806-.1509v-.21681a.38282.38282,0,0,1,.0645-.08009v-3.08791a.58431.58431,0,0,1-.0645-.15329v-.0718a.25618.25618,0,0,1-.0806-.0791v-.0732a.2038.2038,0,0,1-.0654-.07861h-.3867a1.33087,1.33087,0,0,1-.145.07861.82405.82405,0,0,0-.08109.0732,1.41339,1.41339,0,0,1-.145.0791.79772.79772,0,0,0-.08111.1519,1.37555,1.37555,0,0,1-.145.07319,1.4638,1.4638,0,0,0-.1611.15191c-.0796.0498-.1445.101-.21.144a1.56956,1.56956,0,0,0-.1606.1519c-.0484.08-.09719.1518-.145.2241-.2261.2319-.45219.4639-.6783.688v.144a.6445.6445,0,0,0-.08.08009v.15191a.25418.25418,0,0,0-.065.0649v.1509a.9333.9333,0,0,0-.0801.0801v.1518a.72282.72282,0,0,0-.081.15239v.145a.73042.73042,0,0,0-.0806.07861.59823.59823,0,0,0-.0639.1523v.1519a.68565.68565,0,0,0-.0811.1518.69584.69584,0,0,0-.0801.15239v.15181a.31267.31267,0,0,0-.081.065.64674.64674,0,0,0-.065.1509v.15329a.67591.67591,0,0,0-.08009.15181.57468.57468,0,0,0-.06491.1509v.07329a.66955.66955,0,0,0-.08009.15181v.0791a.61534.61534,0,0,0-.081.0718v.1518a.4921.4921,0,0,0-.064.0801v.0723a.33841.33841,0,0,0-.08111.0659v.0791a.61894.61894,0,0,0-.06489.1519" transform="translate(-237.22989 -397.9999)"/>
        <path class="cls-3" d="M268.89739,417.9824a1.06876,1.06876,0,0,0,.081.2319v.1519a.5982.5982,0,0,0,.065.1523v.1519a.47092.47092,0,0,0,.0801.144v.231a.18714.18714,0,0,0,.0649.07319v.231a.23435.23435,0,0,0,.0801.07171v.232a.33717.33717,0,0,0,.081.0649v.5283a.61286.61286,0,0,0,.064.1519v.7529a.64023.64023,0,0,0,.081.1524c0,.3315-.0332.6577-.0332.9834a2.14213,2.14213,0,0,0-.08.3037v.9765a1.494,1.494,0,0,0-.065.2246v.5274a2.43291,2.43291,0,0,0-.0801.2969v.23139a1.50052,1.50052,0,0,0-.081.22461v.4483a1.2122,1.2122,0,0,0-.0649.2168v.2314a1.51024,1.51024,0,0,0-.0801.2236v.2325a1.18461,1.18461,0,0,0-.065.2382,1.52142,1.52142,0,0,0-.0796.22459v.23151a1.134,1.134,0,0,0-.081.2178v.2304a1.51487,1.51487,0,0,0-.0801.2246,1.20629,1.20629,0,0,0-.0649.22369v.23141a1.3995,1.3995,0,0,0-.0801.22459,2.153,2.153,0,0,0-.0811.29691,1.26868,1.26868,0,0,0-.0649.2236v.3037a2.15151,2.15151,0,0,0-.0801.30379,2.02469,2.02469,0,0,0-.081.30371,2.2434,2.2434,0,0,0-.064.2968v.3106a2.3891,2.3891,0,0,0-.0811.3115,2.57376,2.57376,0,0,0-.081.2969,2.20739,2.20739,0,0,0-.065.3037,1.60026,1.60026,0,0,0-.08.2314,2.4167,2.4167,0,0,0-.065.2959,64.65385,64.65385,0,0,1-.1611.4493,1.55518,1.55518,0,0,0-.0806.2314,1.46471,1.46471,0,0,0-.0644.2236.69377.69377,0,0,0-.0806.1524,1.58248,1.58248,0,0,0-.0801.2314.72857.72857,0,0,0-.081.1387.58464.58464,0,0,0-.064.1504.66118.66118,0,0,0-.081.15229.36312.36312,0,0,0-.065.13681v.1669a.68911.68911,0,0,0-.0801.1514.66.66,0,0,0-.081.0801v.2246a.26311.26311,0,0,0-.064.0645v.2314a.18654.18654,0,0,0,.064.07229v.08h.081a.27164.27164,0,0,0,.0801.07331h.4517a.392.392,0,0,1,.0644-.07331h.1616a1.45321,1.45321,0,0,0,.1451-.08c.145-.14459.29-.28909.4521-.44139a.71192.71192,0,0,1,.0801-.1514c.0478-.0508.0967-.1016.146-.1523a1.59843,1.59843,0,0,1,.0801-.2461c.0488-.0723.0966-.1446.145-.2237a1.31572,1.31572,0,0,1,.081-.2158,1.49163,1.49163,0,0,1,.0796-.2256c.0493-.0722.0982-.1445.1451-.2168a2.21014,2.21014,0,0,1,.0649-.3037,113.48392,113.48392,0,0,0,.1611-.6074,3.23834,3.23834,0,0,1,.065-.3692,2.60858,2.60858,0,0,1,.1621-.3037,3.19847,3.19847,0,0,1,.0801-.37591c.0161-.15239.0317-.30379.0649-.47069a3.5783,3.5783,0,0,1,.0801-.3829,4.13409,4.13409,0,0,1,.0649-.44141,4.55935,4.55935,0,0,1,.0801-.456,4.22963,4.22963,0,0,1,.081-.45509c.0489-.1455.0967-.29691.1451-.4492.0156-.1738.0488-.34671.081-.5274.0156-.1738.0318-.3476.064-.52831.0156-.17379.0488-.34759.081-.52829.0157-.21.0479-.4121.0796-.6152v-.1514a.613.613,0,0,1,.065-.1514v-.5215a.52976.52976,0,0,1,.081-.1445v-1.8144a.27129.27129,0,0,1-.081-.07331v-.60739a.2712.2712,0,0,1-.065-.0654v-.3037a.69676.69676,0,0,1-.0796-.1524v-.0722a.67264.67264,0,0,1-.081-.15091v-.15329a3.09061,3.09061,0,0,0-.145-.4546,1.07006,1.07006,0,0,1-.064-.2325v-.2168a.67808.67808,0,0,1-.0811-.15181.65933.65933,0,0,1-.081-.15239v-.1518a.085.085,0,0,1-.0479-.07181v-.23239a.18622.18622,0,0,1-.0654-.0718v-.15181a.23.23,0,0,1-.0796-.07229v-.145a.30077.30077,0,0,1-.0654-.0869v-.1451a.2334.2334,0,0,1-.0796-.07171v-.07909a.24421.24421,0,0,1-.0811-.0733v-.1518a.24191.24191,0,0,1-.081-.0791v-.0718a.62058.62058,0,0,1-.064-.15191.6776.6776,0,0,1-.081-.15229.7107.7107,0,0,1-.0801-.1519.58028.58028,0,0,1-.0649-.15181.61865.61865,0,0,1-.0801-.15239,1.04349,1.04349,0,0,1-.065-.2168.36056.36056,0,0,0-.081.065h0Z" transform="translate(-237.22989 -397.9999)"/>
    </g>
</svg>