<svg width="890" height="81" viewBox="0 0 890 81" fill="none" xmlns="http://www.w3.org/2000/svg">
<g filter="url(#filter0_d)">
<path d="M4 6.14384C234.685 -14.2698 412.386 48.931 475.89 19.38C539.393 -10.171 914.449 55.5172 884.276 72.7088C865.104 83.6321 536.937 41.7413 487.468 58.771C437.998 75.8007 134.164 33.7647 4 58.771V6.14384Z" fill="#905F43"/>
</g>
<path d="M808.942 60.3404C817.274 66.8136 810.314 58.1004 803.605 56.5876C796.896 55.0748 801.505 55.406 785.149 54.0379C768.793 52.6699 775.783 49.9051 770.049 50.1321C765.834 50.299 767.62 52.4231 768.863 53.537C769.39 54.0092 770.022 54.3397 770.694 54.5633C784.361 59.1144 800.81 54.023 808.942 60.3404Z" fill="#7E543C"/>
<path d="M566.857 30.8693C575.189 37.3425 568.229 28.6293 561.52 27.1165C554.811 25.6037 559.42 25.9349 543.064 24.5668C526.709 23.1988 533.699 20.434 527.964 20.661C523.749 20.8279 525.536 22.952 526.778 24.0659C527.305 24.5382 527.938 24.8687 528.609 25.0922C542.277 29.6433 558.725 24.5519 566.857 30.8693Z" fill="#7E543C"/>
<path d="M296.003 48.4115C304.335 54.8847 297.375 46.1715 290.666 44.6588C283.957 43.146 288.566 43.4771 272.21 42.1091C255.855 40.741 262.845 37.9762 257.11 38.2033C252.895 38.3701 254.682 40.4943 255.924 41.6082C256.451 42.0804 257.084 42.4109 257.755 42.6344C271.423 47.1856 287.871 42.0941 296.003 48.4115Z" fill="#7E543C"/>
<path d="M56.0233 37.8862C64.3555 44.3593 57.3954 35.6461 50.6862 34.1334C43.9771 32.6206 48.5861 32.9517 32.2305 31.5837C15.8749 30.2156 22.8649 27.4508 17.1303 27.6779C12.9152 27.8447 14.7018 29.9689 15.9445 31.0828C16.4713 31.555 17.104 31.8855 17.7753 32.109C31.4425 36.6602 47.8915 31.5687 56.0233 37.8862Z" fill="#7E543C"/>
<path d="M190.749 23.8522C199.081 30.3254 192.121 21.6122 185.412 20.0994C178.703 18.5867 183.312 18.9178 166.956 17.5498C150.6 16.1817 157.59 13.4169 151.856 13.6439C147.641 13.8108 149.427 15.9349 150.67 17.0488C151.197 17.5211 151.83 17.8516 152.501 18.0751C166.168 22.6262 182.617 17.5348 190.749 23.8522Z" fill="#7E543C"/>
<path d="M136.83 39.0624C146.975 36.1621 137.269 41.6525 130.479 40.5551C123.69 39.4577 128.09 40.8686 112.403 36.0408C96.7167 31.2129 102.172 36.3843 96.9356 34.0358C93.0865 32.3096 95.5362 31.0046 97.1046 30.4343C97.7695 30.1925 98.4798 30.1216 99.186 30.1645C113.565 31.0365 126.93 41.893 136.83 39.0624Z" fill="#7E543C"/>
<path d="M365.583 39.0624C375.728 36.1621 366.021 41.6525 359.232 40.5551C352.442 39.4577 356.842 40.8686 341.156 36.0408C325.469 31.2129 330.925 36.3843 325.688 34.0358C321.839 32.3096 324.289 31.0046 325.857 30.4343C326.522 30.1925 327.232 30.1216 327.938 30.1645C342.317 31.0365 355.682 41.893 365.583 39.0624Z" fill="#7E543C"/>
<path d="M473.644 48.886C483.789 45.9857 474.083 51.4761 467.293 50.3787C460.504 49.2813 464.904 50.6922 449.217 45.8644C433.531 41.0365 438.986 46.2079 433.75 43.8594C429.901 42.1332 432.35 40.8282 433.919 40.2579C434.583 40.0161 435.294 39.9452 436 39.9881C450.379 40.8601 463.744 51.7166 473.644 48.886Z" fill="#7E543C"/>
<path d="M677.756 52.9159C688.285 53.6067 677.295 55.5019 671.274 52.1791C665.252 48.8563 668.919 51.6685 655.779 41.8332C642.64 31.998 646.032 38.7062 641.894 34.7293C638.853 31.8061 641.599 31.4038 643.268 31.3957C643.975 31.3923 644.668 31.5652 645.318 31.8437C658.56 37.5138 667.481 52.2416 677.756 52.9159Z" fill="#7E543C"/>
<defs>
<filter id="filter0_d" x="0" y="0" width="890" height="80.5531" filterUnits="userSpaceOnUse" color-interpolation-filters="sRGB">
<feFlood flood-opacity="0" result="BackgroundImageFix"/>
<feColorMatrix in="SourceAlpha" type="matrix" values="0 0 0 0 0 0 0 0 0 0 0 0 0 0 0 0 0 0 127 0"/>
<feOffset dy="2"/>
<feGaussianBlur stdDeviation="2"/>
<feColorMatrix type="matrix" values="0 0 0 0 0 0 0 0 0 0 0 0 0 0 0 0 0 0 0.15 0"/>
<feBlend mode="normal" in2="BackgroundImageFix" result="effect1_dropShadow"/>
<feBlend mode="normal" in="SourceGraphic" in2="effect1_dropShadow" result="shape"/>
</filter>
</defs>
</svg>
