<svg width="886" height="265" viewBox="0 0 886 265" fill="none" xmlns="http://www.w3.org/2000/svg">
<g filter="url(#filter0_d)">
<path d="M0 92.6148C230.685 72.2011 408.386 135.402 471.89 105.851C535.393 76.3 910.449 141.988 880.276 159.18C861.104 170.103 532.937 128.212 483.468 145.242C433.998 162.272 130.164 120.236 0 145.242V92.6148Z" fill="#905F43"/>
</g>
<g filter="url(#filter1_d)">
<path d="M658.822 51.0477C658.822 51.0477 622.839 73.4229 608.531 76.9428C594.223 80.4626 538.156 79.781 519.565 81.756C500.974 83.7309 501.422 83.4402 485.342 93.8672C469.261 104.294 472.619 119.855 472.619 119.855C472.619 119.855 497.052 96.3538 513.582 93.2937C530.111 90.2337 593.824 93.1947 613.891 85.2082C633.958 77.2217 658.822 51.0477 658.822 51.0477Z" fill="url(#paint0_linear)"/>
</g>
<path d="M807.458 92.9047C807.458 92.9047 789.12 106.266 781.617 108.707C774.114 111.148 744.146 112.984 734.295 114.768C724.444 116.553 724.672 116.38 716.494 122.579C708.315 128.778 710.719 136.957 710.719 136.957C710.719 136.957 722.845 123.447 731.552 121.165C740.26 118.882 774.4 117.963 784.804 112.911C795.207 107.858 807.458 92.9047 807.458 92.9047Z" fill="url(#paint1_linear)"/>
<path d="M804.942 146.811C813.274 153.284 806.314 144.571 799.605 143.058C792.896 141.546 797.505 141.877 781.149 140.509C764.794 139.141 771.784 136.376 766.049 136.603C761.834 136.77 763.621 138.894 764.863 140.008C765.39 140.48 766.023 140.811 766.694 141.034C780.361 145.585 796.81 140.494 804.942 146.811Z" fill="#7E543C"/>
<path d="M562.857 117.34C571.189 123.813 564.229 115.1 557.52 113.587C550.811 112.075 555.42 112.406 539.064 111.038C522.709 109.67 529.699 106.905 523.964 107.132C519.749 107.299 521.536 109.423 522.778 110.537C523.305 111.009 523.938 111.34 524.609 111.563C538.277 116.114 554.725 111.023 562.857 117.34Z" fill="#7E543C"/>
<path d="M292.003 134.882C300.335 141.356 293.375 132.642 286.666 131.13C279.957 129.617 284.566 129.948 268.21 128.58C251.855 127.212 258.845 124.447 253.11 124.674C248.895 124.841 250.682 126.965 251.924 128.079C252.451 128.551 253.084 128.882 253.755 129.105C267.423 133.657 283.871 128.565 292.003 134.882Z" fill="#7E543C"/>
<path d="M52.0235 124.357C60.3557 130.83 53.3956 122.117 46.6865 120.604C39.9774 119.092 44.5863 119.423 28.2307 118.055C11.8751 116.687 18.8651 113.922 13.1306 114.149C8.91547 114.316 10.7021 116.44 11.9448 117.554C12.4716 118.026 13.1043 118.356 13.7755 118.58C27.4428 123.131 43.8917 118.04 52.0235 124.357Z" fill="#7E543C"/>
<path d="M186.749 110.323C195.081 116.796 188.121 108.083 181.412 106.57C174.703 105.058 179.312 105.389 162.956 104.021C146.6 102.653 153.59 99.8878 147.856 100.115C143.641 100.282 145.427 102.406 146.67 103.52C147.197 103.992 147.83 104.323 148.501 104.546C162.168 109.097 178.617 104.006 186.749 110.323Z" fill="#7E543C"/>
<path d="M132.83 125.533C142.975 122.633 133.269 128.123 126.479 127.026C119.69 125.929 124.09 127.339 108.403 122.512C92.7167 117.684 98.1721 122.855 92.9356 120.507C89.0865 118.78 91.5362 117.475 93.1046 116.905C93.7695 116.663 94.4798 116.592 95.186 116.635C109.565 117.507 122.93 128.364 132.83 125.533Z" fill="#7E543C"/>
<path d="M361.583 125.533C371.728 122.633 362.021 128.123 355.232 127.026C348.442 125.929 352.843 127.339 337.156 122.512C321.469 117.684 326.925 122.855 321.688 120.507C317.839 118.78 320.289 117.475 321.857 116.905C322.522 116.663 323.232 116.592 323.939 116.635C338.317 117.507 351.682 128.364 361.583 125.533Z" fill="#7E543C"/>
<path d="M469.644 135.357C479.789 132.457 470.082 137.947 463.293 136.85C456.503 135.752 460.904 137.163 445.217 132.335C429.53 127.507 434.986 132.679 429.749 130.33C425.9 128.604 428.35 127.299 429.918 126.729C430.583 126.487 431.293 126.416 432 126.459C446.378 127.331 459.744 138.188 469.644 135.357Z" fill="#7E543C"/>
<path d="M673.756 139.387C684.285 140.078 673.295 141.973 667.274 138.65C661.252 135.327 664.919 138.139 651.779 128.304C638.64 118.469 642.032 125.177 637.894 121.2C634.853 118.277 637.599 117.875 639.268 117.867C639.975 117.863 640.668 118.036 641.318 118.315C654.56 123.985 663.481 138.713 673.756 139.387Z" fill="#7E543C"/>
<g filter="url(#filter2_d)">
<path d="M286.62 207.583C286.62 207.583 249.372 177.142 233.776 171.092C218.181 165.042 154.957 157.63 134.313 152.694C113.67 147.758 114.133 148.151 97.5493 134.066C80.966 119.98 87.0168 102.95 87.0168 102.95C87.0168 102.95 111.097 132.975 129.261 138.831C147.424 144.688 219.588 150.649 241.016 162.568C262.444 174.487 286.62 207.583 286.62 207.583Z" fill="url(#paint2_linear)"/>
</g>
<path d="M727.31 192.322C727.31 192.322 712.179 175.415 705.354 171.456C698.53 167.496 669.611 159.421 660.353 155.612C651.095 151.804 651.281 152.02 644.584 144.245C637.886 136.469 641.95 128.976 641.95 128.976C641.95 128.976 650.976 144.727 659.012 148.783C667.047 152.84 700.238 160.893 709.351 168.013C718.464 175.133 727.31 192.322 727.31 192.322Z" fill="url(#paint3_linear)"/>
<defs>
<filter id="filter0_d" x="-4" y="86.4709" width="890" height="80.5531" filterUnits="userSpaceOnUse" color-interpolation-filters="sRGB">
<feFlood flood-opacity="0" result="BackgroundImageFix"/>
<feColorMatrix in="SourceAlpha" type="matrix" values="0 0 0 0 0 0 0 0 0 0 0 0 0 0 0 0 0 0 127 0"/>
<feOffset dy="2"/>
<feGaussianBlur stdDeviation="2"/>
<feColorMatrix type="matrix" values="0 0 0 0 0 0 0 0 0 0 0 0 0 0 0 0 0 0 0.15 0"/>
<feBlend mode="normal" in2="BackgroundImageFix" result="effect1_dropShadow"/>
<feBlend mode="normal" in="SourceGraphic" in2="effect1_dropShadow" result="shape"/>
</filter>
<filter id="filter1_d" x="460.522" y="0" width="205.237" height="166.944" filterUnits="userSpaceOnUse" color-interpolation-filters="sRGB">
<feFlood flood-opacity="0" result="BackgroundImageFix"/>
<feColorMatrix in="SourceAlpha" type="matrix" values="0 0 0 0 0 0 0 0 0 0 0 0 0 0 0 0 0 0 127 0"/>
<feOffset dy="2"/>
<feGaussianBlur stdDeviation="2"/>
<feColorMatrix type="matrix" values="0 0 0 0 0 0 0 0 0 0 0 0 0 0 0 0 0 0 0.15 0"/>
<feBlend mode="normal" in2="BackgroundImageFix" result="effect1_dropShadow"/>
<feBlend mode="normal" in="SourceGraphic" in2="effect1_dropShadow" result="shape"/>
</filter>
<filter id="filter2_d" x="72.0784" y="58.5764" width="222.508" height="205.589" filterUnits="userSpaceOnUse" color-interpolation-filters="sRGB">
<feFlood flood-opacity="0" result="BackgroundImageFix"/>
<feColorMatrix in="SourceAlpha" type="matrix" values="0 0 0 0 0 0 0 0 0 0 0 0 0 0 0 0 0 0 127 0"/>
<feOffset dy="2"/>
<feGaussianBlur stdDeviation="2"/>
<feColorMatrix type="matrix" values="0 0 0 0 0 0 0 0 0 0 0 0 0 0 0 0 0 0 0.15 0"/>
<feBlend mode="normal" in2="BackgroundImageFix" result="effect1_dropShadow"/>
<feBlend mode="normal" in="SourceGraphic" in2="effect1_dropShadow" result="shape"/>
</filter>
<linearGradient id="paint0_linear" x1="644.388" y1="28.7882" x2="481.892" y2="134.156" gradientUnits="userSpaceOnUse">
<stop stop-color="#D4B9A9"/>
<stop offset="1" stop-color="#B7917B"/>
</linearGradient>
<linearGradient id="paint1_linear" x1="798.876" y1="81.5838" x2="716.233" y2="144.23" gradientUnits="userSpaceOnUse">
<stop stop-color="#D4B9A9"/>
<stop offset="1" stop-color="#B7917B"/>
</linearGradient>
<linearGradient id="paint2_linear" x1="267.122" y1="230.539" x2="99.5433" y2="88.2026" gradientUnits="userSpaceOnUse">
<stop stop-color="#D5B9A9"/>
<stop offset="1" stop-color="#B7917B"/>
</linearGradient>
<linearGradient id="paint3_linear" x1="716.547" y1="201.593" x2="648.865" y2="123.02" gradientUnits="userSpaceOnUse">
<stop stop-color="#D4B9A9"/>
<stop offset="1" stop-color="#B7917B"/>
</linearGradient>
</defs>
</svg>
