<svg width="82" height="400" viewBox="0 0 82 400" fill="none" xmlns="http://www.w3.org/2000/svg">
<g filter="url(#filter0_d)">
<path d="M-37.9752 387.295C-24.4586 284.729 20.3663 213.391 13.6527 182.83C6.93917 152.27 72.0269 -4.87583 76.5906 9.95058C79.4903 19.3712 29.335 158.386 31.9529 181.61C34.5708 204.834 -13.2831 333.225 -15.029 392.409L-37.9752 387.295Z" fill="#905F43"/>
</g>
<path d="M63.877 41.5955C67.5091 38.5915 63.0337 40.7795 61.7221 43.5578C60.4105 46.336 61.0028 44.3587 58.8169 51.357C56.6311 58.3553 56.1048 55.0389 55.6466 57.5613C55.392 58.9623 55.9578 58.9777 56.5112 58.7145C57.1501 58.4106 57.5953 57.8199 57.9343 57.1989C60.9197 51.7295 60.4407 44.4375 63.877 41.5955Z" fill="#7E543C"/>
<path d="M27.5023 144.284C31.1343 141.28 26.6589 143.468 25.3473 146.246C24.0358 149.024 24.6281 147.047 22.4422 154.045C20.2563 161.044 19.7301 157.727 19.2718 160.25C19.0173 161.651 19.583 161.666 20.1364 161.403C20.7753 161.099 21.2205 160.508 21.5595 159.887C24.5449 154.418 24.0659 147.126 27.5023 144.284Z" fill="#7E543C"/>
<path d="M8.83014 264.085C12.4622 261.081 7.98679 263.269 6.67523 266.047C5.36367 268.825 5.95593 266.848 3.77006 273.846C1.58418 280.845 1.05796 277.528 0.599678 280.051C0.345135 281.452 0.91092 281.467 1.46428 281.204C2.10319 280.9 2.54843 280.309 2.8874 279.688C5.8728 274.219 5.39379 266.927 8.83014 264.085Z" fill="#7E543C"/>
<path d="M11.5153 232.838C11.2366 228.133 12.6872 232.899 11.549 235.753C10.4107 238.606 11.4535 236.825 7.8241 243.195C4.19472 249.566 6.97963 247.69 5.4468 249.745C4.59542 250.886 4.19841 250.483 4.01369 249.898C3.80042 249.224 3.92898 248.495 4.15217 247.824C6.11794 241.911 11.7791 237.29 11.5153 232.838Z" fill="#7E543C"/>
<path d="M26.2995 186.677C26.0208 181.972 27.4714 186.738 26.3331 189.591C25.1949 192.445 26.2377 190.663 22.6083 197.034C18.9789 203.404 21.7638 201.528 20.231 203.583C19.3796 204.725 18.9826 204.321 18.7979 203.737C18.5846 203.062 18.7132 202.334 18.9364 201.662C20.9021 195.75 26.5633 191.128 26.2995 186.677Z" fill="#7E543C"/>
<path d="M47.8917 98.0727C49.216 93.5492 48.9744 98.525 46.9405 100.828C44.9065 103.13 46.489 101.805 40.9238 106.578C35.3586 111.351 38.6131 110.524 36.4771 111.942C35.2906 112.729 35.0529 112.216 35.0761 111.603C35.1028 110.896 35.4695 110.254 35.906 109.697C39.7507 104.794 46.6387 102.352 47.8917 98.0727Z" fill="#7E543C"/>
<defs>
<filter id="filter0_d" x="-43.782" y="0.327637" width="125.344" height="399.615" filterUnits="userSpaceOnUse" color-interpolation-filters="sRGB">
<feFlood flood-opacity="0" result="BackgroundImageFix"/>
<feColorMatrix in="SourceAlpha" type="matrix" values="0 0 0 0 0 0 0 0 0 0 0 0 0 0 0 0 0 0 127 0"/>
<feOffset dy="2"/>
<feGaussianBlur stdDeviation="2"/>
<feColorMatrix type="matrix" values="0 0 0 0 0 0 0 0 0 0 0 0 0 0 0 0 0 0 0.15 0"/>
<feBlend mode="normal" in2="BackgroundImageFix" result="effect1_dropShadow"/>
<feBlend mode="normal" in="SourceGraphic" in2="effect1_dropShadow" result="shape"/>
</filter>
</defs>
</svg>
