<svg width="325" height="520" viewBox="0 0 325 520" fill="none" xmlns="http://www.w3.org/2000/svg">
<path d="M233.879 63.7395C225.099 -13.737 260.191 37.4242 286.502 63.7395C325.969 192.37 173.947 418.944 233.879 489.108C293.811 559.272 27.7727 489.104 32.1579 458.408C36.5431 427.711 258.729 283.002 233.879 63.7395Z" fill="#915F43"/>
<path d="M34.4666 445.927C74.0287 425.243 89.1666 344.153 89.1666 404.085C89.1666 464.017 119.895 516.188 106.708 509.569C93.5202 502.95 66.9278 482.33 45.6251 485.639C24.3224 488.949 0.240883 485.639 0.240883 485.639C0.240883 485.639 -5.09558 466.61 34.4666 445.927Z" fill="#7E543C"/>
<path d="M235.37 269.041C235.721 260.525 237.467 269.362 234.902 274.29C232.338 279.218 234.536 276.202 226.852 287.005C219.169 297.809 224.519 294.938 221.389 298.358C219.202 300.747 218.751 298.868 218.678 297.519C218.64 296.813 218.8 296.114 219.068 295.459C223.447 284.757 235.029 277.303 235.37 269.041Z" fill="#7E543C"/>
<path d="M270.452 184.26C270.803 175.744 272.55 184.581 269.985 189.509C267.42 194.437 269.619 191.421 261.935 202.224C254.251 213.028 259.601 210.157 256.471 213.576C254.284 215.966 253.834 214.087 253.761 212.738C253.723 212.031 253.882 211.333 254.15 210.678C258.529 199.975 270.112 192.521 270.452 184.26Z" fill="#7E543C"/>
<path d="M241.482 119.943C241.131 111.427 239.385 120.264 241.95 125.192C244.514 130.12 242.316 127.104 250 137.907C257.684 148.711 252.333 145.84 255.463 149.259C257.65 151.649 258.101 149.77 258.174 148.421C258.212 147.714 258.052 147.016 257.784 146.361C253.405 135.658 241.823 128.205 241.482 119.943Z" fill="#7E543C"/>
<g filter="url(#filter0_d)">
<path d="M219.299 253.763C266.113 187.984 211.991 271.304 225.146 319.541C238.302 367.779 233.917 376.549 233.917 376.549L225.146 437.943C225.146 437.943 172.486 319.542 219.299 253.763Z" fill="#B7917B"/>
</g>
<g filter="url(#filter1_d)">
<path d="M297.735 26.2026C291.726 -36.1069 295.861 40.8166 268.36 68.1402C240.859 95.4638 240.413 103.053 240.413 103.053L222.556 147.699C222.556 147.699 303.744 88.5121 297.735 26.2026Z" fill="#B7917B"/>
</g>
<path d="M165.177 363.395C169.563 356.087 166.865 364.681 162.254 367.779C157.642 370.878 161.017 369.283 149.098 375.088C137.18 380.894 143.251 380.935 138.866 382.438C135.802 383.489 136.306 381.623 136.888 380.404C137.193 379.766 137.668 379.229 138.216 378.783C147.185 371.483 160.923 370.485 165.177 363.395Z" fill="#7E543C"/>
<path d="M179.615 397.726C179.966 389.211 181.712 398.048 179.147 402.976C176.582 407.904 178.781 404.888 171.097 415.691C163.413 426.494 168.763 423.624 165.633 427.043C163.446 429.433 162.996 427.553 162.923 426.205C162.885 425.498 163.045 424.8 163.313 424.145C167.692 413.442 179.274 405.988 179.615 397.726Z" fill="#7E543C"/>
<path d="M139.16 447.374C138.809 438.859 137.063 447.696 139.628 452.623C142.192 457.551 139.994 454.535 147.678 465.339C155.361 476.142 150.011 473.271 153.141 476.691C155.328 479.08 155.779 477.201 155.852 475.852C155.89 475.146 155.73 474.447 155.462 473.793C151.083 463.09 139.501 455.636 139.16 447.374Z" fill="#7E543C"/>
<path d="M209.324 485.38C208.973 476.864 207.226 485.701 209.791 490.629C212.356 495.557 210.157 492.541 217.841 503.344C225.525 514.148 220.175 511.277 223.305 514.696C225.492 517.086 225.943 515.207 226.015 513.858C226.054 513.151 225.894 512.453 225.626 511.798C221.247 501.095 209.664 493.641 209.324 485.38Z" fill="#7E543C"/>
<path d="M171.318 307.046C170.967 298.531 169.221 307.368 171.786 312.296C174.351 317.223 172.152 314.207 179.836 325.011C187.52 335.814 182.169 332.944 185.299 336.363C187.487 338.752 187.937 336.873 188.01 335.524C188.048 334.818 187.888 334.12 187.62 333.465C183.241 322.762 171.659 315.308 171.318 307.046Z" fill="#7E543C"/>
<defs>
<filter id="filter0_d" x="195.908" y="227.451" width="46.8415" height="216.491" filterUnits="userSpaceOnUse" color-interpolation-filters="sRGB">
<feFlood flood-opacity="0" result="BackgroundImageFix"/>
<feColorMatrix in="SourceAlpha" type="matrix" values="0 0 0 0 0 0 0 0 0 0 0 0 0 0 0 0 0 0 127 0"/>
<feOffset dy="2"/>
<feGaussianBlur stdDeviation="2"/>
<feColorMatrix type="matrix" values="0 0 0 0 0 0 0 0 0 0 0 0 0 0 0 0 0 0 0.15 0"/>
<feBlend mode="normal" in2="BackgroundImageFix" result="effect1_dropShadow"/>
<feBlend mode="normal" in="SourceGraphic" in2="effect1_dropShadow" result="shape"/>
</filter>
<filter id="filter1_d" x="209.415" y="0.342529" width="114.755" height="163.12" filterUnits="userSpaceOnUse" color-interpolation-filters="sRGB">
<feFlood flood-opacity="0" result="BackgroundImageFix"/>
<feColorMatrix in="SourceAlpha" type="matrix" values="0 0 0 0 0 0 0 0 0 0 0 0 0 0 0 0 0 0 127 0"/>
<feOffset dy="2"/>
<feGaussianBlur stdDeviation="2"/>
<feColorMatrix type="matrix" values="0 0 0 0 0 0 0 0 0 0 0 0 0 0 0 0 0 0 0.15 0"/>
<feBlend mode="normal" in2="BackgroundImageFix" result="effect1_dropShadow"/>
<feBlend mode="normal" in="SourceGraphic" in2="effect1_dropShadow" result="shape"/>
</filter>
</defs>
</svg>
