<svg width="253" height="273" viewBox="0 0 253 273" fill="none" xmlns="http://www.w3.org/2000/svg">
<g filter="url(#filter0_d)">
<path d="M246.501 112.961C257.502 159.96 231 300.961 127.5 254.961C24.0005 208.961 4.0003 188.962 4 131.461C3.9997 73.9609 125.001 -39.5402 164.501 13.9605C204.001 67.4611 235.5 65.9613 246.501 112.961Z" fill="#905F43"/>
</g>
<path d="M141.296 248.708C131.53 244.714 140.577 251.234 147.445 250.887C154.314 250.54 149.786 251.461 165.907 248.38C182.028 245.3 176.039 249.843 181.501 248.082C185.516 246.788 183.224 245.222 181.728 244.484C181.093 244.17 180.395 244.022 179.689 243.987C165.301 243.279 150.827 252.606 141.296 248.708Z" fill="#7E543C"/>
<path d="M79.6623 37.9355C89.8684 35.2592 78.7189 35.4839 73.4373 39.8891C68.1557 44.2942 71.2219 40.8373 60.1877 52.9874C49.1535 65.1374 51.2106 57.9074 47.9028 62.5973C45.4714 66.0445 48.2441 65.9184 49.8841 65.6096C50.5794 65.4786 51.2266 65.1775 51.8123 64.7806C63.7379 56.7006 69.7017 40.5474 79.6623 37.9355Z" fill="#7E543C"/>
<path d="M135.934 5.65759C146.474 6.14125 135.763 3.0363 129.41 5.66923C123.056 8.30217 127.012 5.91493 112.861 14.2288C98.7099 22.5427 102.826 16.253 98.2722 19.7454C94.9247 22.3124 97.6093 23.0175 99.2668 23.211C99.9696 23.293 100.677 23.1981 101.354 22.9937C115.145 18.8306 125.647 5.18556 135.934 5.65759Z" fill="#7E543C"/>
<path d="M136.371 13.8791C125.899 12.5828 136.98 11.3239 142.8 14.9881C148.62 18.6523 145.122 15.6335 157.673 26.2094C170.224 36.7854 167.224 29.8929 171.126 34.1015C173.994 37.1951 171.229 37.4385 169.562 37.3504C168.856 37.313 168.174 37.1006 167.541 36.7851C154.647 30.3615 146.59 15.1442 136.371 13.8791Z" fill="#7E543C"/>
<path d="M234.951 112.382C231.728 102.335 237.526 111.862 236.645 118.683C235.765 125.504 237.035 121.061 232.709 136.893C228.384 152.726 233.379 147.108 231.199 152.417C229.596 156.319 228.214 153.912 227.594 152.363C227.331 151.706 227.237 150.998 227.258 150.291C227.671 135.892 238.096 122.187 234.951 112.382Z" fill="#7E543C"/>
<path d="M197.782 55.811C188.359 51.0633 199.216 53.6103 203.462 59.0209C207.708 64.4314 205.43 60.4107 213.686 74.5962C221.941 88.7818 221.438 81.2817 223.694 86.5587C225.352 90.4375 222.667 89.7354 221.128 89.091C220.475 88.8179 219.905 88.3883 219.415 87.8779C209.439 77.4866 206.978 60.4445 197.782 55.811Z" fill="#7E543C"/>
<path d="M227.779 196.435C220.445 204.021 229.858 198.041 232.085 191.534C234.312 185.027 233.486 189.573 236.609 173.46C239.732 157.347 241.727 164.595 242.12 158.869C242.408 154.66 240.104 156.208 238.862 157.323C238.336 157.796 237.939 158.389 237.645 159.033C231.647 172.13 234.936 189.032 227.779 196.435Z" fill="#7E543C"/>
<path d="M18.7207 118.102C22.5799 108.282 16.1845 117.418 16.6262 124.281C17.0679 131.144 16.0851 126.629 19.3874 142.706C22.6897 158.784 18.065 152.858 19.9008 158.295C21.2502 162.292 22.7839 159.979 23.5019 158.472C23.8063 157.833 23.9449 157.133 23.97 156.426C24.48 142.03 14.9543 127.686 18.7207 118.102Z" fill="#7E543C"/>
<path d="M70.8174 211.794C66.12 202.347 68.6092 213.217 73.997 217.492C79.3849 221.766 75.3763 219.468 89.5177 227.798C103.659 236.129 96.1618 235.586 101.427 237.87C105.297 239.549 104.609 236.86 103.973 235.317C103.703 234.663 103.276 234.091 102.769 233.598C92.4307 223.567 75.4019 221.015 70.8174 211.794Z" fill="#7E543C"/>
<path d="M172.455 229.43C161.904 229.53 172.77 232.037 178.968 229.057C185.167 226.077 181.348 228.679 195.018 219.595C208.687 210.511 204.925 217.019 209.279 213.28C212.479 210.531 209.76 209.976 208.094 209.874C207.388 209.831 206.687 209.965 206.022 210.207C192.483 215.127 182.752 229.332 172.455 229.43Z" fill="#7E543C"/>
<defs>
<filter id="filter0_d" x="0" y="0" width="252.809" height="272.06" filterUnits="userSpaceOnUse" color-interpolation-filters="sRGB">
<feFlood flood-opacity="0" result="BackgroundImageFix"/>
<feColorMatrix in="SourceAlpha" type="matrix" values="0 0 0 0 0 0 0 0 0 0 0 0 0 0 0 0 0 0 127 0"/>
<feOffset dy="4"/>
<feGaussianBlur stdDeviation="2"/>
<feColorMatrix type="matrix" values="0 0 0 0 0 0 0 0 0 0 0 0 0 0 0 0 0 0 0.25 0"/>
<feBlend mode="normal" in2="BackgroundImageFix" result="effect1_dropShadow"/>
<feBlend mode="normal" in="SourceGraphic" in2="effect1_dropShadow" result="shape"/>
</filter>
</defs>
</svg>
